<svg width="195" height="86" viewBox="0 0 195 86" fill="none" xmlns="http://www.w3.org/2000/svg">
<mask id="path-1-inside-1_6_14" fill="white">
<path d="M0.552002 51.1763C2.34185 51.1763 3.59474 51.074 4.31068 50.8694C5.07776 50.6649 5.56357 50.2813 5.76812 49.7188C6.02382 49.1563 6.15166 48.2102 6.15166 46.8806V10.0609C6.15166 8.6802 6.02382 7.70857 5.76812 7.14605C5.56357 6.53239 5.07776 6.12328 4.31068 5.91872C3.59474 5.71417 2.34185 5.61189 0.552002 5.61189V3.08054H23.4876V5.61189C21.6978 5.61189 20.4193 5.71417 19.6522 5.91872C18.8851 6.12328 18.3738 6.53239 18.1181 7.14605C17.9135 7.70857 17.8112 8.6802 17.8112 10.0609V45.9601C17.8112 47.4943 17.9646 48.5938 18.2715 49.2586C18.5783 49.8722 19.1408 50.2813 19.959 50.4859C20.8284 50.6904 22.2347 50.7927 24.178 50.7927C28.4225 50.7927 31.6186 50.0256 33.7664 48.4915C35.9142 46.9573 37.4484 44.1703 38.3689 40.1304H41.0537L40.1332 53.7076H0.552002V51.1763Z"/>
<path d="M64.9673 54.5514C58.5238 54.5514 53.7424 53.0172 50.6229 49.9489C47.5035 46.8806 45.9438 42.1503 45.9438 35.758C45.9438 29.3146 47.5035 24.5331 50.6229 21.4137C53.7935 18.2942 58.6261 16.7345 65.1207 16.7345C71.513 16.7345 76.2433 18.2687 79.3116 21.337C82.3799 24.4053 83.9141 29.1612 83.9141 35.6046C83.9141 42.0992 82.3544 46.8806 79.2349 49.9489C76.1666 53.0172 71.4107 54.5514 64.9673 54.5514ZM65.044 51.8666C67.652 51.8666 69.5442 50.6393 70.7204 48.1847C71.8965 45.73 72.4846 41.8946 72.4846 36.6785C72.4846 30.6442 71.8965 26.2718 70.7204 23.5615C69.5442 20.8512 67.6009 19.496 64.8906 19.496C62.2314 19.496 60.3137 20.8512 59.1375 23.5615C57.9613 26.2207 57.3732 30.3118 57.3732 35.8347C57.3732 41.5111 57.9613 45.6022 59.1375 48.108C60.3137 50.6137 62.2825 51.8666 65.044 51.8666Z"/>
<path d="M127.975 47.3409C127.975 48.4659 128.078 49.2841 128.282 49.7955C128.487 50.3069 128.896 50.6649 129.51 50.8694C130.174 51.074 131.223 51.1763 132.655 51.1763V53.7076H113.094V51.1763C114.321 51.1763 115.191 51.0996 115.702 50.9461C116.265 50.7927 116.623 50.4859 116.776 50.0256C116.981 49.5654 117.083 48.7983 117.083 47.7244V29.3146C117.083 24.0984 115.216 21.4904 111.483 21.4904C110.154 21.4904 108.952 21.7972 107.878 22.4109C106.855 22.9734 105.705 23.8939 104.426 25.1724V47.4943C104.426 48.6193 104.528 49.4376 104.733 49.9489C104.989 50.4603 105.398 50.7927 105.96 50.9461C106.523 51.0996 107.418 51.1763 108.645 51.1763V53.7076H88.6244V51.1763C90.1074 51.1763 91.1813 51.074 91.8461 50.8694C92.5109 50.6649 92.9456 50.3069 93.1502 49.7955C93.4059 49.2841 93.5337 48.4659 93.5337 47.3409V24.6354C93.5337 23.4592 93.3803 22.6921 93.0735 22.3342C92.8178 21.9251 92.2297 21.7205 91.3092 21.7205H88.7778V19.1892L100.821 17.2715H104.119V22.3342H104.349C106.139 20.6466 108.006 19.317 109.949 18.3454C111.944 17.3226 114.245 16.8112 116.853 16.8112C120.381 16.8112 123.117 17.8084 125.061 19.8028C127.004 21.7972 127.975 24.8144 127.975 28.8543V47.3409Z"/>
<path d="M143.635 13.0525C141.947 13.0525 140.464 12.4644 139.186 11.2883C137.958 10.1121 137.345 8.6802 137.345 6.99263C137.345 5.30506 137.958 3.87319 139.186 2.697C140.464 1.46968 141.973 0.856018 143.711 0.856018C145.399 0.856018 146.856 1.46968 148.084 2.697C149.362 3.87319 150.001 5.27949 150.001 6.91593C150.001 8.60349 149.362 10.0609 148.084 11.2883C146.805 12.4644 145.322 13.0525 143.635 13.0525ZM135.734 85.308C133.126 85.308 130.901 84.7199 129.06 83.5437C127.168 82.4187 126.222 80.7822 126.222 78.6344C126.222 77.2537 126.657 76.0775 127.526 75.1059C128.395 74.1854 129.495 73.7251 130.824 73.7251C132.103 73.7251 133.202 74.0575 134.123 74.7223C134.992 75.3871 135.452 76.3843 135.504 77.7139C135.504 78.2253 135.427 78.6344 135.273 78.9412C135.12 79.2481 134.916 79.606 134.66 80.0151C134.609 80.0663 134.481 80.2197 134.276 80.4754C134.123 80.7822 134.046 81.1146 134.046 81.4726C134.046 81.9328 134.251 82.2908 134.66 82.5465C135.069 82.8022 135.478 82.93 135.887 82.93C136.705 82.93 137.293 82.7255 137.651 82.3164C138.009 81.9073 138.24 81.1402 138.342 80.0151C138.495 78.8901 138.572 77.1258 138.572 74.7223V24.6354C138.572 23.4592 138.418 22.6921 138.112 22.3342C137.856 21.9251 137.268 21.7205 136.347 21.7205H133.816V19.1892L146.013 17.2715H149.464V52.0968C149.464 57.6197 148.314 77.3048 146.013 80.4754C143.711 83.6971 140.285 85.308 135.734 85.308Z"/>
<path d="M195 52.0968C192.443 53.7332 189.375 54.5514 185.795 54.5514C183.852 54.5514 182.292 54.219 181.116 53.5542C179.94 52.8894 179.173 51.9689 178.815 50.7927C175.644 53.2985 172.039 54.5514 167.999 54.5514C164.624 54.5514 162.016 53.861 160.175 52.4803C158.334 51.0996 157.413 49.0796 157.413 46.4204C157.413 42.9941 159.28 40.0792 163.013 37.6757C166.746 35.2722 171.937 33.4568 178.585 32.2295V26.4764C178.533 24.2263 178.099 22.5899 177.281 21.5671C176.462 20.4932 174.979 19.9562 172.831 19.9562C171.604 19.9562 170.556 20.1608 169.686 20.5699C168.817 20.9279 168.382 21.3881 168.382 21.9506C168.382 22.3597 168.638 22.8711 169.15 23.4848C169.559 23.9962 169.84 24.4308 169.993 24.7888C170.198 25.1468 170.3 25.6582 170.3 26.323C170.3 27.6526 169.814 28.8032 168.843 29.7748C167.871 30.6953 166.593 31.1556 165.007 31.1556C163.371 31.1556 162.067 30.6953 161.095 29.7748C160.175 28.8032 159.714 27.6781 159.714 26.3997C159.714 24.8144 160.303 23.3058 161.479 21.8739C162.706 20.442 164.598 19.2659 167.155 18.3454C169.712 17.3737 172.908 16.8879 176.744 16.8879C181.141 16.8879 184.338 17.8851 186.332 19.8795C188.378 21.8228 189.4 24.9167 189.4 29.1612V46.0368C189.4 47.8778 189.554 49.1052 189.861 49.7188C190.219 50.3325 190.781 50.6393 191.548 50.6393C192.213 50.6393 192.775 50.537 193.236 50.3325C193.747 50.0768 194.054 49.9234 194.156 49.8722L195 52.0968ZM168.229 44.6561C168.229 46.4971 168.613 47.8523 169.38 48.7216C170.198 49.5398 171.451 49.9489 173.138 49.9489C174.775 49.9489 176.59 49.2074 178.585 47.7244V35.3745C175.005 36.3461 172.371 37.5734 170.684 39.0564C169.047 40.5395 168.229 42.406 168.229 44.6561Z"/>
<path d="M56.137 70.4874V69.2327C55.5065 70.219 54.5795 70.7121 53.356 70.7121C52.5632 70.7121 51.8328 70.4937 51.1649 70.0567C50.5032 69.6197 49.9882 69.0111 49.6199 68.2308C49.2578 67.4442 49.0768 66.5422 49.0768 65.5246C49.0768 64.5321 49.2422 63.6332 49.573 62.8279C49.9039 62.0164 50.4002 61.3952 51.0619 60.9645C51.7236 60.5338 52.4633 60.3184 53.2811 60.3184C53.8804 60.3184 54.4141 60.4464 54.8823 60.7023C55.3505 60.952 55.7313 61.2797 56.0246 61.6855V56.7602H57.7008V70.4874H56.137ZM50.8091 65.5246C50.8091 66.7981 51.0775 67.7501 51.6143 68.3806C52.1512 69.0111 52.7848 69.3263 53.5152 69.3263C54.2518 69.3263 54.876 69.0267 55.3879 68.4274C55.906 67.8219 56.1651 66.9011 56.1651 65.6651C56.1651 64.3042 55.9029 63.3054 55.3786 62.6687C54.8542 62.032 54.2081 61.7136 53.4403 61.7136C52.6912 61.7136 52.0638 62.0195 51.5581 62.6312C51.0587 63.243 50.8091 64.2075 50.8091 65.5246Z"/>
<path d="M66.784 67.285L68.5256 67.5004C68.2509 68.5179 67.7422 69.3076 66.9993 69.8694C66.2565 70.4312 65.3076 70.7121 64.1527 70.7121C62.6982 70.7121 61.5434 70.2658 60.6882 69.3731C59.8392 68.4742 59.4147 67.2164 59.4147 65.5996C59.4147 63.9266 59.8454 62.6281 60.7069 61.7042C61.5684 60.7804 62.6858 60.3184 64.0591 60.3184C65.3888 60.3184 66.475 60.771 67.3177 61.6761C68.1604 62.5813 68.5818 63.8548 68.5818 65.4966C68.5818 65.5964 68.5787 65.7462 68.5724 65.946H61.1564C61.2188 67.0384 61.5278 67.8749 62.0834 68.4555C62.6389 69.036 63.3319 69.3263 64.1621 69.3263C64.7801 69.3263 65.3076 69.164 65.7446 68.8394C66.1816 68.5148 66.528 67.9967 66.784 67.285ZM61.25 64.5602H66.8027C66.7278 63.7237 66.5155 63.0963 66.1659 62.6781C65.6291 62.0288 64.9331 61.7042 64.0778 61.7042C63.3038 61.7042 62.6514 61.9633 62.1208 62.4814C61.5964 62.9996 61.3062 63.6925 61.25 64.5602Z"/>
<path d="M75.184 70.4874V56.7602H76.8694V70.4874H75.184Z"/>
<path d="M85.5968 69.2608C84.9726 69.7914 84.3702 70.1659 83.7896 70.3844C83.2153 70.6029 82.5973 70.7121 81.9356 70.7121C80.8432 70.7121 80.0035 70.4468 79.4167 69.9162C78.83 69.3794 78.5366 68.6958 78.5366 67.8656C78.5366 67.3787 78.6458 66.9354 78.8643 66.5359C79.089 66.1302 79.3793 65.8056 79.7351 65.5621C80.0972 65.3186 80.5029 65.1345 80.9524 65.0096C81.2833 64.9222 81.7827 64.838 82.4506 64.7568C83.8115 64.5945 84.8134 64.401 85.4564 64.1763C85.4626 63.9453 85.4657 63.7986 85.4657 63.7362C85.4657 63.0495 85.3065 62.5657 84.9882 62.2848C84.5574 61.904 83.9176 61.7136 83.0686 61.7136C82.2758 61.7136 81.689 61.8541 81.3082 62.135C80.9337 62.4096 80.6559 62.8997 80.4749 63.6051L78.8268 63.3803C78.9767 62.6749 79.2232 62.1069 79.5666 61.6761C79.9099 61.2392 80.4062 60.9052 81.0554 60.6742C81.7046 60.437 82.4568 60.3184 83.3121 60.3184C84.161 60.3184 84.8508 60.4183 85.3814 60.618C85.9121 60.8178 86.3022 61.0706 86.5519 61.3765C86.8016 61.6761 86.9764 62.0569 87.0763 62.5189C87.1325 62.806 87.1606 63.3242 87.1606 64.0733V66.3206C87.1606 67.8874 87.1949 68.88 87.2636 69.2982C87.3385 69.7102 87.482 70.1066 87.6943 70.4874H85.9339C85.7591 70.1378 85.6468 69.729 85.5968 69.2608ZM85.4564 65.4966C84.8446 65.7462 83.9269 65.9585 82.7034 66.1333C82.0105 66.2332 81.5205 66.3455 81.2333 66.4704C80.9462 66.5952 80.7246 66.7794 80.5685 67.0228C80.4124 67.2601 80.3344 67.5254 80.3344 67.8188C80.3344 68.2682 80.5029 68.6428 80.84 68.9424C81.1834 69.242 81.6828 69.3919 82.3382 69.3919C82.9875 69.3919 83.5649 69.2514 84.0705 68.9705C84.5762 68.6833 84.9476 68.2932 85.1848 67.8C85.3658 67.4192 85.4564 66.8574 85.4564 66.1146V65.4966Z"/>
<path d="M93.6785 67.5191L95.3452 67.2569C95.4388 67.9249 95.6979 68.4368 96.1224 68.7926C96.5531 69.1484 97.1524 69.3263 97.9202 69.3263C98.6943 69.3263 99.2686 69.1703 99.6432 68.8581C100.018 68.5398 100.205 68.1683 100.205 67.7438C100.205 67.3631 100.04 67.0634 99.7087 66.8449C99.4777 66.6951 98.9034 66.5047 97.9858 66.2737C96.7498 65.9616 95.8914 65.6932 95.4108 65.4685C94.9363 65.2375 94.5743 64.9222 94.3246 64.5227C94.0811 64.117 93.9594 63.6706 93.9594 63.1837C93.9594 62.7405 94.0593 62.3316 94.259 61.9571C94.465 61.5763 94.7428 61.261 95.0924 61.0113C95.3546 60.8178 95.7104 60.6555 96.1599 60.5244C96.6156 60.3871 97.1025 60.3184 97.6206 60.3184C98.4009 60.3184 99.0845 60.4308 99.6712 60.6555C100.264 60.8802 100.701 61.1861 100.982 61.5731C101.263 61.9539 101.457 62.4658 101.563 63.1088L99.9147 63.3335C99.8398 62.8216 99.6213 62.4221 99.2592 62.135C98.9034 61.8478 98.3978 61.7042 97.7423 61.7042C96.9683 61.7042 96.4158 61.8322 96.0849 62.0882C95.7541 62.3441 95.5887 62.6437 95.5887 62.9871C95.5887 63.2056 95.6573 63.4022 95.7947 63.577C95.932 63.758 96.1474 63.9078 96.4408 64.0264C96.6093 64.0889 97.1056 64.2324 97.9296 64.4572C99.1219 64.7755 99.9522 65.0377 100.42 65.2437C100.895 65.4435 101.266 65.7369 101.535 66.1239C101.803 66.511 101.937 66.9916 101.937 67.5659C101.937 68.1278 101.772 68.6584 101.441 69.1578C101.116 69.6509 100.645 70.0348 100.027 70.3095C99.4091 70.5779 98.7099 70.7121 97.9296 70.7121C96.6374 70.7121 95.6511 70.4437 94.9707 69.9069C94.2965 69.37 93.8657 68.5741 93.6785 67.5191Z"/>
<path d="M110.365 67.285L112.107 67.5004C111.832 68.5179 111.323 69.3076 110.58 69.8694C109.838 70.4312 108.889 70.7121 107.734 70.7121C106.279 70.7121 105.124 70.2658 104.269 69.3731C103.42 68.4742 102.996 67.2164 102.996 65.5996C102.996 63.9266 103.426 62.6281 104.288 61.7042C105.149 60.7804 106.267 60.3184 107.64 60.3184C108.97 60.3184 110.056 60.771 110.899 61.6761C111.741 62.5813 112.163 63.8548 112.163 65.4966C112.163 65.5964 112.16 65.7462 112.153 65.946H104.737C104.8 67.0384 105.109 67.8749 105.664 68.4555C106.22 69.036 106.913 69.3263 107.743 69.3263C108.361 69.3263 108.889 69.164 109.326 68.8394C109.763 68.5148 110.109 67.9967 110.365 67.285ZM104.831 64.5602H110.384C110.309 63.7237 110.097 63.0963 109.747 62.6781C109.21 62.0288 108.514 61.7042 107.659 61.7042C106.885 61.7042 106.232 61.9633 105.702 62.4814C105.177 62.9996 104.887 63.6925 104.831 64.5602Z"/>
<path d="M120.3 70.4874V69.2327C119.67 70.219 118.743 70.7121 117.519 70.7121C116.726 70.7121 115.996 70.4937 115.328 70.0567C114.666 69.6197 114.151 69.0111 113.783 68.2308C113.421 67.4442 113.24 66.5422 113.24 65.5246C113.24 64.5321 113.405 63.6332 113.736 62.8279C114.067 62.0164 114.563 61.3952 115.225 60.9645C115.887 60.5338 116.627 60.3184 117.444 60.3184C118.044 60.3184 118.577 60.4464 119.046 60.7023C119.514 60.952 119.895 61.2797 120.188 61.6855V56.7602H121.864V70.4874H120.3ZM114.972 65.5246C114.972 66.7981 115.241 67.7501 115.778 68.3806C116.314 69.0111 116.948 69.3263 117.678 69.3263C118.415 69.3263 119.039 69.0267 119.551 68.4274C120.069 67.8219 120.328 66.9011 120.328 65.6651C120.328 64.3042 120.066 63.3054 119.542 62.6687C119.017 62.032 118.371 61.7136 117.604 61.7136C116.854 61.7136 116.227 62.0195 115.721 62.6312C115.222 63.243 114.972 64.2075 114.972 65.5246Z"/>
<path d="M130.629 69.2608C130.005 69.7914 129.402 70.1659 128.822 70.3844C128.247 70.6029 127.629 70.7121 126.968 70.7121C125.875 70.7121 125.036 70.4468 124.449 69.9162C123.862 69.3794 123.569 68.6958 123.569 67.8656C123.569 67.3787 123.678 66.9354 123.896 66.5359C124.121 66.1302 124.411 65.8056 124.767 65.5621C125.129 65.3186 125.535 65.1345 125.984 65.0096C126.315 64.9222 126.815 64.838 127.483 64.7568C128.844 64.5945 129.845 64.401 130.488 64.1763C130.495 63.9453 130.498 63.7986 130.498 63.7362C130.498 63.0495 130.339 62.5657 130.02 62.2848C129.589 61.904 128.95 61.7136 128.101 61.7136C127.308 61.7136 126.721 61.8541 126.34 62.135C125.966 62.4096 125.688 62.8997 125.507 63.6051L123.859 63.3803C124.009 62.6749 124.255 62.1069 124.599 61.6761C124.942 61.2392 125.438 60.9052 126.087 60.6742C126.737 60.437 127.489 60.3184 128.344 60.3184C129.193 60.3184 129.883 60.4183 130.413 60.618C130.944 60.8178 131.334 61.0706 131.584 61.3765C131.834 61.6761 132.008 62.0569 132.108 62.5189C132.165 62.806 132.193 63.3242 132.193 64.0733V66.3206C132.193 67.8874 132.227 68.88 132.296 69.2982C132.371 69.7102 132.514 70.1066 132.726 70.4874H130.966C130.791 70.1378 130.679 69.729 130.629 69.2608ZM130.488 65.4966C129.877 65.7462 128.959 65.9585 127.735 66.1333C127.043 66.2332 126.553 66.3455 126.265 66.4704C125.978 66.5952 125.757 66.7794 125.601 67.0228C125.444 67.2601 125.366 67.5254 125.366 67.8188C125.366 68.2682 125.535 68.6428 125.872 68.9424C126.215 69.242 126.715 69.3919 127.37 69.3919C128.02 69.3919 128.597 69.2514 129.103 68.9705C129.608 68.6833 129.98 68.2932 130.217 67.8C130.398 67.4192 130.488 66.8574 130.488 66.1146V65.4966Z"/>
</mask>
<path d="M0.552002 51.1763C2.34185 51.1763 3.59474 51.074 4.31068 50.8694C5.07776 50.6649 5.56357 50.2813 5.76812 49.7188C6.02382 49.1563 6.15166 48.2102 6.15166 46.8806V10.0609C6.15166 8.6802 6.02382 7.70857 5.76812 7.14605C5.56357 6.53239 5.07776 6.12328 4.31068 5.91872C3.59474 5.71417 2.34185 5.61189 0.552002 5.61189V3.08054H23.4876V5.61189C21.6978 5.61189 20.4193 5.71417 19.6522 5.91872C18.8851 6.12328 18.3738 6.53239 18.1181 7.14605C17.9135 7.70857 17.8112 8.6802 17.8112 10.0609V45.9601C17.8112 47.4943 17.9646 48.5938 18.2715 49.2586C18.5783 49.8722 19.1408 50.2813 19.959 50.4859C20.8284 50.6904 22.2347 50.7927 24.178 50.7927C28.4225 50.7927 31.6186 50.0256 33.7664 48.4915C35.9142 46.9573 37.4484 44.1703 38.3689 40.1304H41.0537L40.1332 53.7076H0.552002V51.1763Z" fill="white"/>
<path d="M64.9673 54.5514C58.5238 54.5514 53.7424 53.0172 50.6229 49.9489C47.5035 46.8806 45.9438 42.1503 45.9438 35.758C45.9438 29.3146 47.5035 24.5331 50.6229 21.4137C53.7935 18.2942 58.6261 16.7345 65.1207 16.7345C71.513 16.7345 76.2433 18.2687 79.3116 21.337C82.3799 24.4053 83.9141 29.1612 83.9141 35.6046C83.9141 42.0992 82.3544 46.8806 79.2349 49.9489C76.1666 53.0172 71.4107 54.5514 64.9673 54.5514ZM65.044 51.8666C67.652 51.8666 69.5442 50.6393 70.7204 48.1847C71.8965 45.73 72.4846 41.8946 72.4846 36.6785C72.4846 30.6442 71.8965 26.2718 70.7204 23.5615C69.5442 20.8512 67.6009 19.496 64.8906 19.496C62.2314 19.496 60.3137 20.8512 59.1375 23.5615C57.9613 26.2207 57.3732 30.3118 57.3732 35.8347C57.3732 41.5111 57.9613 45.6022 59.1375 48.108C60.3137 50.6137 62.2825 51.8666 65.044 51.8666Z" fill="white"/>
<path d="M127.975 47.3409C127.975 48.4659 128.078 49.2841 128.282 49.7955C128.487 50.3069 128.896 50.6649 129.51 50.8694C130.174 51.074 131.223 51.1763 132.655 51.1763V53.7076H113.094V51.1763C114.321 51.1763 115.191 51.0996 115.702 50.9461C116.265 50.7927 116.623 50.4859 116.776 50.0256C116.981 49.5654 117.083 48.7983 117.083 47.7244V29.3146C117.083 24.0984 115.216 21.4904 111.483 21.4904C110.154 21.4904 108.952 21.7972 107.878 22.4109C106.855 22.9734 105.705 23.8939 104.426 25.1724V47.4943C104.426 48.6193 104.528 49.4376 104.733 49.9489C104.989 50.4603 105.398 50.7927 105.96 50.9461C106.523 51.0996 107.418 51.1763 108.645 51.1763V53.7076H88.6244V51.1763C90.1074 51.1763 91.1813 51.074 91.8461 50.8694C92.5109 50.6649 92.9456 50.3069 93.1502 49.7955C93.4059 49.2841 93.5337 48.4659 93.5337 47.3409V24.6354C93.5337 23.4592 93.3803 22.6921 93.0735 22.3342C92.8178 21.9251 92.2297 21.7205 91.3092 21.7205H88.7778V19.1892L100.821 17.2715H104.119V22.3342H104.349C106.139 20.6466 108.006 19.317 109.949 18.3454C111.944 17.3226 114.245 16.8112 116.853 16.8112C120.381 16.8112 123.117 17.8084 125.061 19.8028C127.004 21.7972 127.975 24.8144 127.975 28.8543V47.3409Z" fill="white"/>
<path d="M143.635 13.0525C141.947 13.0525 140.464 12.4644 139.186 11.2883C137.958 10.1121 137.345 8.6802 137.345 6.99263C137.345 5.30506 137.958 3.87319 139.186 2.697C140.464 1.46968 141.973 0.856018 143.711 0.856018C145.399 0.856018 146.856 1.46968 148.084 2.697C149.362 3.87319 150.001 5.27949 150.001 6.91593C150.001 8.60349 149.362 10.0609 148.084 11.2883C146.805 12.4644 145.322 13.0525 143.635 13.0525ZM135.734 85.308C133.126 85.308 130.901 84.7199 129.06 83.5437C127.168 82.4187 126.222 80.7822 126.222 78.6344C126.222 77.2537 126.657 76.0775 127.526 75.1059C128.395 74.1854 129.495 73.7251 130.824 73.7251C132.103 73.7251 133.202 74.0575 134.123 74.7223C134.992 75.3871 135.452 76.3843 135.504 77.7139C135.504 78.2253 135.427 78.6344 135.273 78.9412C135.12 79.2481 134.916 79.606 134.66 80.0151C134.609 80.0663 134.481 80.2197 134.276 80.4754C134.123 80.7822 134.046 81.1146 134.046 81.4726C134.046 81.9328 134.251 82.2908 134.66 82.5465C135.069 82.8022 135.478 82.93 135.887 82.93C136.705 82.93 137.293 82.7255 137.651 82.3164C138.009 81.9073 138.24 81.1402 138.342 80.0151C138.495 78.8901 138.572 77.1258 138.572 74.7223V24.6354C138.572 23.4592 138.418 22.6921 138.112 22.3342C137.856 21.9251 137.268 21.7205 136.347 21.7205H133.816V19.1892L146.013 17.2715H149.464V52.0968C149.464 57.6197 148.314 77.3048 146.013 80.4754C143.711 83.6971 140.285 85.308 135.734 85.308Z" fill="white"/>
<path d="M195 52.0968C192.443 53.7332 189.375 54.5514 185.795 54.5514C183.852 54.5514 182.292 54.219 181.116 53.5542C179.94 52.8894 179.173 51.9689 178.815 50.7927C175.644 53.2985 172.039 54.5514 167.999 54.5514C164.624 54.5514 162.016 53.861 160.175 52.4803C158.334 51.0996 157.413 49.0796 157.413 46.4204C157.413 42.9941 159.28 40.0792 163.013 37.6757C166.746 35.2722 171.937 33.4568 178.585 32.2295V26.4764C178.533 24.2263 178.099 22.5899 177.281 21.5671C176.462 20.4932 174.979 19.9562 172.831 19.9562C171.604 19.9562 170.556 20.1608 169.686 20.5699C168.817 20.9279 168.382 21.3881 168.382 21.9506C168.382 22.3597 168.638 22.8711 169.15 23.4848C169.559 23.9962 169.84 24.4308 169.993 24.7888C170.198 25.1468 170.3 25.6582 170.3 26.323C170.3 27.6526 169.814 28.8032 168.843 29.7748C167.871 30.6953 166.593 31.1556 165.007 31.1556C163.371 31.1556 162.067 30.6953 161.095 29.7748C160.175 28.8032 159.714 27.6781 159.714 26.3997C159.714 24.8144 160.303 23.3058 161.479 21.8739C162.706 20.442 164.598 19.2659 167.155 18.3454C169.712 17.3737 172.908 16.8879 176.744 16.8879C181.141 16.8879 184.338 17.8851 186.332 19.8795C188.378 21.8228 189.4 24.9167 189.4 29.1612V46.0368C189.4 47.8778 189.554 49.1052 189.861 49.7188C190.219 50.3325 190.781 50.6393 191.548 50.6393C192.213 50.6393 192.775 50.537 193.236 50.3325C193.747 50.0768 194.054 49.9234 194.156 49.8722L195 52.0968ZM168.229 44.6561C168.229 46.4971 168.613 47.8523 169.38 48.7216C170.198 49.5398 171.451 49.9489 173.138 49.9489C174.775 49.9489 176.59 49.2074 178.585 47.7244V35.3745C175.005 36.3461 172.371 37.5734 170.684 39.0564C169.047 40.5395 168.229 42.406 168.229 44.6561Z" fill="white"/>
<path d="M56.137 70.4874V69.2327C55.5065 70.219 54.5795 70.7121 53.356 70.7121C52.5632 70.7121 51.8328 70.4937 51.1649 70.0567C50.5032 69.6197 49.9882 69.0111 49.6199 68.2308C49.2578 67.4442 49.0768 66.5422 49.0768 65.5246C49.0768 64.5321 49.2422 63.6332 49.573 62.8279C49.9039 62.0164 50.4002 61.3952 51.0619 60.9645C51.7236 60.5338 52.4633 60.3184 53.2811 60.3184C53.8804 60.3184 54.4141 60.4464 54.8823 60.7023C55.3505 60.952 55.7313 61.2797 56.0246 61.6855V56.7602H57.7008V70.4874H56.137ZM50.8091 65.5246C50.8091 66.7981 51.0775 67.7501 51.6143 68.3806C52.1512 69.0111 52.7848 69.3263 53.5152 69.3263C54.2518 69.3263 54.876 69.0267 55.3879 68.4274C55.906 67.8219 56.1651 66.9011 56.1651 65.6651C56.1651 64.3042 55.9029 63.3054 55.3786 62.6687C54.8542 62.032 54.2081 61.7136 53.4403 61.7136C52.6912 61.7136 52.0638 62.0195 51.5581 62.6312C51.0587 63.243 50.8091 64.2075 50.8091 65.5246Z" fill="white"/>
<path d="M66.784 67.285L68.5256 67.5004C68.2509 68.5179 67.7422 69.3076 66.9993 69.8694C66.2565 70.4312 65.3076 70.7121 64.1527 70.7121C62.6982 70.7121 61.5434 70.2658 60.6882 69.3731C59.8392 68.4742 59.4147 67.2164 59.4147 65.5996C59.4147 63.9266 59.8454 62.6281 60.7069 61.7042C61.5684 60.7804 62.6858 60.3184 64.0591 60.3184C65.3888 60.3184 66.475 60.771 67.3177 61.6761C68.1604 62.5813 68.5818 63.8548 68.5818 65.4966C68.5818 65.5964 68.5787 65.7462 68.5724 65.946H61.1564C61.2188 67.0384 61.5278 67.8749 62.0834 68.4555C62.6389 69.036 63.3319 69.3263 64.1621 69.3263C64.7801 69.3263 65.3076 69.164 65.7446 68.8394C66.1816 68.5148 66.528 67.9967 66.784 67.285ZM61.25 64.5602H66.8027C66.7278 63.7237 66.5155 63.0963 66.1659 62.6781C65.6291 62.0288 64.9331 61.7042 64.0778 61.7042C63.3038 61.7042 62.6514 61.9633 62.1208 62.4814C61.5964 62.9996 61.3062 63.6925 61.25 64.5602Z" fill="white"/>
<path d="M75.184 70.4874V56.7602H76.8694V70.4874H75.184Z" fill="white"/>
<path d="M85.5968 69.2608C84.9726 69.7914 84.3702 70.1659 83.7896 70.3844C83.2153 70.6029 82.5973 70.7121 81.9356 70.7121C80.8432 70.7121 80.0035 70.4468 79.4167 69.9162C78.83 69.3794 78.5366 68.6958 78.5366 67.8656C78.5366 67.3787 78.6458 66.9354 78.8643 66.5359C79.089 66.1302 79.3793 65.8056 79.7351 65.5621C80.0972 65.3186 80.5029 65.1345 80.9524 65.0096C81.2833 64.9222 81.7827 64.838 82.4506 64.7568C83.8115 64.5945 84.8134 64.401 85.4564 64.1763C85.4626 63.9453 85.4657 63.7986 85.4657 63.7362C85.4657 63.0495 85.3065 62.5657 84.9882 62.2848C84.5574 61.904 83.9176 61.7136 83.0686 61.7136C82.2758 61.7136 81.689 61.8541 81.3082 62.135C80.9337 62.4096 80.6559 62.8997 80.4749 63.6051L78.8268 63.3803C78.9767 62.6749 79.2232 62.1069 79.5666 61.6761C79.9099 61.2392 80.4062 60.9052 81.0554 60.6742C81.7046 60.437 82.4568 60.3184 83.3121 60.3184C84.161 60.3184 84.8508 60.4183 85.3814 60.618C85.9121 60.8178 86.3022 61.0706 86.5519 61.3765C86.8016 61.6761 86.9764 62.0569 87.0763 62.5189C87.1325 62.806 87.1606 63.3242 87.1606 64.0733V66.3206C87.1606 67.8874 87.1949 68.88 87.2636 69.2982C87.3385 69.7102 87.482 70.1066 87.6943 70.4874H85.9339C85.7591 70.1378 85.6468 69.729 85.5968 69.2608ZM85.4564 65.4966C84.8446 65.7462 83.9269 65.9585 82.7034 66.1333C82.0105 66.2332 81.5205 66.3455 81.2333 66.4704C80.9462 66.5952 80.7246 66.7794 80.5685 67.0228C80.4124 67.2601 80.3344 67.5254 80.3344 67.8188C80.3344 68.2682 80.5029 68.6428 80.84 68.9424C81.1834 69.242 81.6828 69.3919 82.3382 69.3919C82.9875 69.3919 83.5649 69.2514 84.0705 68.9705C84.5762 68.6833 84.9476 68.2932 85.1848 67.8C85.3658 67.4192 85.4564 66.8574 85.4564 66.1146V65.4966Z" fill="white"/>
<path d="M93.6785 67.5191L95.3452 67.2569C95.4388 67.9249 95.6979 68.4368 96.1224 68.7926C96.5531 69.1484 97.1524 69.3263 97.9202 69.3263C98.6943 69.3263 99.2686 69.1703 99.6432 68.8581C100.018 68.5398 100.205 68.1683 100.205 67.7438C100.205 67.3631 100.04 67.0634 99.7087 66.8449C99.4777 66.6951 98.9034 66.5047 97.9858 66.2737C96.7498 65.9616 95.8914 65.6932 95.4108 65.4685C94.9363 65.2375 94.5743 64.9222 94.3246 64.5227C94.0811 64.117 93.9594 63.6706 93.9594 63.1837C93.9594 62.7405 94.0593 62.3316 94.259 61.9571C94.465 61.5763 94.7428 61.261 95.0924 61.0113C95.3546 60.8178 95.7104 60.6555 96.1599 60.5244C96.6156 60.3871 97.1025 60.3184 97.6206 60.3184C98.4009 60.3184 99.0845 60.4308 99.6712 60.6555C100.264 60.8802 100.701 61.1861 100.982 61.5731C101.263 61.9539 101.457 62.4658 101.563 63.1088L99.9147 63.3335C99.8398 62.8216 99.6213 62.4221 99.2592 62.135C98.9034 61.8478 98.3978 61.7042 97.7423 61.7042C96.9683 61.7042 96.4158 61.8322 96.0849 62.0882C95.7541 62.3441 95.5887 62.6437 95.5887 62.9871C95.5887 63.2056 95.6573 63.4022 95.7947 63.577C95.932 63.758 96.1474 63.9078 96.4408 64.0264C96.6093 64.0889 97.1056 64.2324 97.9296 64.4572C99.1219 64.7755 99.9522 65.0377 100.42 65.2437C100.895 65.4435 101.266 65.7369 101.535 66.1239C101.803 66.511 101.937 66.9916 101.937 67.5659C101.937 68.1278 101.772 68.6584 101.441 69.1578C101.116 69.6509 100.645 70.0348 100.027 70.3095C99.4091 70.5779 98.7099 70.7121 97.9296 70.7121C96.6374 70.7121 95.6511 70.4437 94.9707 69.9069C94.2965 69.37 93.8657 68.5741 93.6785 67.5191Z" fill="white"/>
<path d="M110.365 67.285L112.107 67.5004C111.832 68.5179 111.323 69.3076 110.58 69.8694C109.838 70.4312 108.889 70.7121 107.734 70.7121C106.279 70.7121 105.124 70.2658 104.269 69.3731C103.42 68.4742 102.996 67.2164 102.996 65.5996C102.996 63.9266 103.426 62.6281 104.288 61.7042C105.149 60.7804 106.267 60.3184 107.64 60.3184C108.97 60.3184 110.056 60.771 110.899 61.6761C111.741 62.5813 112.163 63.8548 112.163 65.4966C112.163 65.5964 112.16 65.7462 112.153 65.946H104.737C104.8 67.0384 105.109 67.8749 105.664 68.4555C106.22 69.036 106.913 69.3263 107.743 69.3263C108.361 69.3263 108.889 69.164 109.326 68.8394C109.763 68.5148 110.109 67.9967 110.365 67.285ZM104.831 64.5602H110.384C110.309 63.7237 110.097 63.0963 109.747 62.6781C109.21 62.0288 108.514 61.7042 107.659 61.7042C106.885 61.7042 106.232 61.9633 105.702 62.4814C105.177 62.9996 104.887 63.6925 104.831 64.5602Z" fill="white"/>
<path d="M120.3 70.4874V69.2327C119.67 70.219 118.743 70.7121 117.519 70.7121C116.726 70.7121 115.996 70.4937 115.328 70.0567C114.666 69.6197 114.151 69.0111 113.783 68.2308C113.421 67.4442 113.24 66.5422 113.24 65.5246C113.24 64.5321 113.405 63.6332 113.736 62.8279C114.067 62.0164 114.563 61.3952 115.225 60.9645C115.887 60.5338 116.627 60.3184 117.444 60.3184C118.044 60.3184 118.577 60.4464 119.046 60.7023C119.514 60.952 119.895 61.2797 120.188 61.6855V56.7602H121.864V70.4874H120.3ZM114.972 65.5246C114.972 66.7981 115.241 67.7501 115.778 68.3806C116.314 69.0111 116.948 69.3263 117.678 69.3263C118.415 69.3263 119.039 69.0267 119.551 68.4274C120.069 67.8219 120.328 66.9011 120.328 65.6651C120.328 64.3042 120.066 63.3054 119.542 62.6687C119.017 62.032 118.371 61.7136 117.604 61.7136C116.854 61.7136 116.227 62.0195 115.721 62.6312C115.222 63.243 114.972 64.2075 114.972 65.5246Z" fill="white"/>
<path d="M130.629 69.2608C130.005 69.7914 129.402 70.1659 128.822 70.3844C128.247 70.6029 127.629 70.7121 126.968 70.7121C125.875 70.7121 125.036 70.4468 124.449 69.9162C123.862 69.3794 123.569 68.6958 123.569 67.8656C123.569 67.3787 123.678 66.9354 123.896 66.5359C124.121 66.1302 124.411 65.8056 124.767 65.5621C125.129 65.3186 125.535 65.1345 125.984 65.0096C126.315 64.9222 126.815 64.838 127.483 64.7568C128.844 64.5945 129.845 64.401 130.488 64.1763C130.495 63.9453 130.498 63.7986 130.498 63.7362C130.498 63.0495 130.339 62.5657 130.02 62.2848C129.589 61.904 128.95 61.7136 128.101 61.7136C127.308 61.7136 126.721 61.8541 126.34 62.135C125.966 62.4096 125.688 62.8997 125.507 63.6051L123.859 63.3803C124.009 62.6749 124.255 62.1069 124.599 61.6761C124.942 61.2392 125.438 60.9052 126.087 60.6742C126.737 60.437 127.489 60.3184 128.344 60.3184C129.193 60.3184 129.883 60.4183 130.413 60.618C130.944 60.8178 131.334 61.0706 131.584 61.3765C131.834 61.6761 132.008 62.0569 132.108 62.5189C132.165 62.806 132.193 63.3242 132.193 64.0733V66.3206C132.193 67.8874 132.227 68.88 132.296 69.2982C132.371 69.7102 132.514 70.1066 132.726 70.4874H130.966C130.791 70.1378 130.679 69.729 130.629 69.2608ZM130.488 65.4966C129.877 65.7462 128.959 65.9585 127.735 66.1333C127.043 66.2332 126.553 66.3455 126.265 66.4704C125.978 66.5952 125.757 66.7794 125.601 67.0228C125.444 67.2601 125.366 67.5254 125.366 67.8188C125.366 68.2682 125.535 68.6428 125.872 68.9424C126.215 69.242 126.715 69.3919 127.37 69.3919C128.02 69.3919 128.597 69.2514 129.103 68.9705C129.608 68.6833 129.98 68.2932 130.217 67.8C130.398 67.4192 130.488 66.8574 130.488 66.1146V65.4966Z" fill="white"/>
<path d="M0.552002 51.1763C2.34185 51.1763 3.59474 51.074 4.31068 50.8694C5.07776 50.6649 5.56357 50.2813 5.76812 49.7188C6.02382 49.1563 6.15166 48.2102 6.15166 46.8806V10.0609C6.15166 8.6802 6.02382 7.70857 5.76812 7.14605C5.56357 6.53239 5.07776 6.12328 4.31068 5.91872C3.59474 5.71417 2.34185 5.61189 0.552002 5.61189V3.08054H23.4876V5.61189C21.6978 5.61189 20.4193 5.71417 19.6522 5.91872C18.8851 6.12328 18.3738 6.53239 18.1181 7.14605C17.9135 7.70857 17.8112 8.6802 17.8112 10.0609V45.9601C17.8112 47.4943 17.9646 48.5938 18.2715 49.2586C18.5783 49.8722 19.1408 50.2813 19.959 50.4859C20.8284 50.6904 22.2347 50.7927 24.178 50.7927C28.4225 50.7927 31.6186 50.0256 33.7664 48.4915C35.9142 46.9573 37.4484 44.1703 38.3689 40.1304H41.0537L40.1332 53.7076H0.552002V51.1763Z" stroke="white" stroke-width="2" mask="url(#path-1-inside-1_6_14)"/>
<path d="M64.9673 54.5514C58.5238 54.5514 53.7424 53.0172 50.6229 49.9489C47.5035 46.8806 45.9438 42.1503 45.9438 35.758C45.9438 29.3146 47.5035 24.5331 50.6229 21.4137C53.7935 18.2942 58.6261 16.7345 65.1207 16.7345C71.513 16.7345 76.2433 18.2687 79.3116 21.337C82.3799 24.4053 83.9141 29.1612 83.9141 35.6046C83.9141 42.0992 82.3544 46.8806 79.2349 49.9489C76.1666 53.0172 71.4107 54.5514 64.9673 54.5514ZM65.044 51.8666C67.652 51.8666 69.5442 50.6393 70.7204 48.1847C71.8965 45.73 72.4846 41.8946 72.4846 36.6785C72.4846 30.6442 71.8965 26.2718 70.7204 23.5615C69.5442 20.8512 67.6009 19.496 64.8906 19.496C62.2314 19.496 60.3137 20.8512 59.1375 23.5615C57.9613 26.2207 57.3732 30.3118 57.3732 35.8347C57.3732 41.5111 57.9613 45.6022 59.1375 48.108C60.3137 50.6137 62.2825 51.8666 65.044 51.8666Z" stroke="white" stroke-width="2" mask="url(#path-1-inside-1_6_14)"/>
<path d="M127.975 47.3409C127.975 48.4659 128.078 49.2841 128.282 49.7955C128.487 50.3069 128.896 50.6649 129.51 50.8694C130.174 51.074 131.223 51.1763 132.655 51.1763V53.7076H113.094V51.1763C114.321 51.1763 115.191 51.0996 115.702 50.9461C116.265 50.7927 116.623 50.4859 116.776 50.0256C116.981 49.5654 117.083 48.7983 117.083 47.7244V29.3146C117.083 24.0984 115.216 21.4904 111.483 21.4904C110.154 21.4904 108.952 21.7972 107.878 22.4109C106.855 22.9734 105.705 23.8939 104.426 25.1724V47.4943C104.426 48.6193 104.528 49.4376 104.733 49.9489C104.989 50.4603 105.398 50.7927 105.96 50.9461C106.523 51.0996 107.418 51.1763 108.645 51.1763V53.7076H88.6244V51.1763C90.1074 51.1763 91.1813 51.074 91.8461 50.8694C92.5109 50.6649 92.9456 50.3069 93.1502 49.7955C93.4059 49.2841 93.5337 48.4659 93.5337 47.3409V24.6354C93.5337 23.4592 93.3803 22.6921 93.0735 22.3342C92.8178 21.9251 92.2297 21.7205 91.3092 21.7205H88.7778V19.1892L100.821 17.2715H104.119V22.3342H104.349C106.139 20.6466 108.006 19.317 109.949 18.3454C111.944 17.3226 114.245 16.8112 116.853 16.8112C120.381 16.8112 123.117 17.8084 125.061 19.8028C127.004 21.7972 127.975 24.8144 127.975 28.8543V47.3409Z" stroke="white" stroke-width="2" mask="url(#path-1-inside-1_6_14)"/>
<path d="M143.635 13.0525C141.947 13.0525 140.464 12.4644 139.186 11.2883C137.958 10.1121 137.345 8.6802 137.345 6.99263C137.345 5.30506 137.958 3.87319 139.186 2.697C140.464 1.46968 141.973 0.856018 143.711 0.856018C145.399 0.856018 146.856 1.46968 148.084 2.697C149.362 3.87319 150.001 5.27949 150.001 6.91593C150.001 8.60349 149.362 10.0609 148.084 11.2883C146.805 12.4644 145.322 13.0525 143.635 13.0525ZM135.734 85.308C133.126 85.308 130.901 84.7199 129.06 83.5437C127.168 82.4187 126.222 80.7822 126.222 78.6344C126.222 77.2537 126.657 76.0775 127.526 75.1059C128.395 74.1854 129.495 73.7251 130.824 73.7251C132.103 73.7251 133.202 74.0575 134.123 74.7223C134.992 75.3871 135.452 76.3843 135.504 77.7139C135.504 78.2253 135.427 78.6344 135.273 78.9412C135.12 79.2481 134.916 79.606 134.66 80.0151C134.609 80.0663 134.481 80.2197 134.276 80.4754C134.123 80.7822 134.046 81.1146 134.046 81.4726C134.046 81.9328 134.251 82.2908 134.66 82.5465C135.069 82.8022 135.478 82.93 135.887 82.93C136.705 82.93 137.293 82.7255 137.651 82.3164C138.009 81.9073 138.24 81.1402 138.342 80.0151C138.495 78.8901 138.572 77.1258 138.572 74.7223V24.6354C138.572 23.4592 138.418 22.6921 138.112 22.3342C137.856 21.9251 137.268 21.7205 136.347 21.7205H133.816V19.1892L146.013 17.2715H149.464V52.0968C149.464 57.6197 148.314 77.3048 146.013 80.4754C143.711 83.6971 140.285 85.308 135.734 85.308Z" stroke="white" stroke-width="2" mask="url(#path-1-inside-1_6_14)"/>
<path d="M195 52.0968C192.443 53.7332 189.375 54.5514 185.795 54.5514C183.852 54.5514 182.292 54.219 181.116 53.5542C179.94 52.8894 179.173 51.9689 178.815 50.7927C175.644 53.2985 172.039 54.5514 167.999 54.5514C164.624 54.5514 162.016 53.861 160.175 52.4803C158.334 51.0996 157.413 49.0796 157.413 46.4204C157.413 42.9941 159.28 40.0792 163.013 37.6757C166.746 35.2722 171.937 33.4568 178.585 32.2295V26.4764C178.533 24.2263 178.099 22.5899 177.281 21.5671C176.462 20.4932 174.979 19.9562 172.831 19.9562C171.604 19.9562 170.556 20.1608 169.686 20.5699C168.817 20.9279 168.382 21.3881 168.382 21.9506C168.382 22.3597 168.638 22.8711 169.15 23.4848C169.559 23.9962 169.84 24.4308 169.993 24.7888C170.198 25.1468 170.3 25.6582 170.3 26.323C170.3 27.6526 169.814 28.8032 168.843 29.7748C167.871 30.6953 166.593 31.1556 165.007 31.1556C163.371 31.1556 162.067 30.6953 161.095 29.7748C160.175 28.8032 159.714 27.6781 159.714 26.3997C159.714 24.8144 160.303 23.3058 161.479 21.8739C162.706 20.442 164.598 19.2659 167.155 18.3454C169.712 17.3737 172.908 16.8879 176.744 16.8879C181.141 16.8879 184.338 17.8851 186.332 19.8795C188.378 21.8228 189.4 24.9167 189.4 29.1612V46.0368C189.4 47.8778 189.554 49.1052 189.861 49.7188C190.219 50.3325 190.781 50.6393 191.548 50.6393C192.213 50.6393 192.775 50.537 193.236 50.3325C193.747 50.0768 194.054 49.9234 194.156 49.8722L195 52.0968ZM168.229 44.6561C168.229 46.4971 168.613 47.8523 169.38 48.7216C170.198 49.5398 171.451 49.9489 173.138 49.9489C174.775 49.9489 176.59 49.2074 178.585 47.7244V35.3745C175.005 36.3461 172.371 37.5734 170.684 39.0564C169.047 40.5395 168.229 42.406 168.229 44.6561Z" stroke="white" stroke-width="2" mask="url(#path-1-inside-1_6_14)"/>
<path d="M56.137 70.4874V69.2327C55.5065 70.219 54.5795 70.7121 53.356 70.7121C52.5632 70.7121 51.8328 70.4937 51.1649 70.0567C50.5032 69.6197 49.9882 69.0111 49.6199 68.2308C49.2578 67.4442 49.0768 66.5422 49.0768 65.5246C49.0768 64.5321 49.2422 63.6332 49.573 62.8279C49.9039 62.0164 50.4002 61.3952 51.0619 60.9645C51.7236 60.5338 52.4633 60.3184 53.2811 60.3184C53.8804 60.3184 54.4141 60.4464 54.8823 60.7023C55.3505 60.952 55.7313 61.2797 56.0246 61.6855V56.7602H57.7008V70.4874H56.137ZM50.8091 65.5246C50.8091 66.7981 51.0775 67.7501 51.6143 68.3806C52.1512 69.0111 52.7848 69.3263 53.5152 69.3263C54.2518 69.3263 54.876 69.0267 55.3879 68.4274C55.906 67.8219 56.1651 66.9011 56.1651 65.6651C56.1651 64.3042 55.9029 63.3054 55.3786 62.6687C54.8542 62.032 54.2081 61.7136 53.4403 61.7136C52.6912 61.7136 52.0638 62.0195 51.5581 62.6312C51.0587 63.243 50.8091 64.2075 50.8091 65.5246Z" stroke="white" stroke-width="2" mask="url(#path-1-inside-1_6_14)"/>
<path d="M66.784 67.285L68.5256 67.5004C68.2509 68.5179 67.7422 69.3076 66.9993 69.8694C66.2565 70.4312 65.3076 70.7121 64.1527 70.7121C62.6982 70.7121 61.5434 70.2658 60.6882 69.3731C59.8392 68.4742 59.4147 67.2164 59.4147 65.5996C59.4147 63.9266 59.8454 62.6281 60.7069 61.7042C61.5684 60.7804 62.6858 60.3184 64.0591 60.3184C65.3888 60.3184 66.475 60.771 67.3177 61.6761C68.1604 62.5813 68.5818 63.8548 68.5818 65.4966C68.5818 65.5964 68.5787 65.7462 68.5724 65.946H61.1564C61.2188 67.0384 61.5278 67.8749 62.0834 68.4555C62.6389 69.036 63.3319 69.3263 64.1621 69.3263C64.7801 69.3263 65.3076 69.164 65.7446 68.8394C66.1816 68.5148 66.528 67.9967 66.784 67.285ZM61.25 64.5602H66.8027C66.7278 63.7237 66.5155 63.0963 66.1659 62.6781C65.6291 62.0288 64.9331 61.7042 64.0778 61.7042C63.3038 61.7042 62.6514 61.9633 62.1208 62.4814C61.5964 62.9996 61.3062 63.6925 61.25 64.5602Z" stroke="white" stroke-width="2" mask="url(#path-1-inside-1_6_14)"/>
<path d="M75.184 70.4874V56.7602H76.8694V70.4874H75.184Z" stroke="white" stroke-width="2" mask="url(#path-1-inside-1_6_14)"/>
<path d="M85.5968 69.2608C84.9726 69.7914 84.3702 70.1659 83.7896 70.3844C83.2153 70.6029 82.5973 70.7121 81.9356 70.7121C80.8432 70.7121 80.0035 70.4468 79.4167 69.9162C78.83 69.3794 78.5366 68.6958 78.5366 67.8656C78.5366 67.3787 78.6458 66.9354 78.8643 66.5359C79.089 66.1302 79.3793 65.8056 79.7351 65.5621C80.0972 65.3186 80.5029 65.1345 80.9524 65.0096C81.2833 64.9222 81.7827 64.838 82.4506 64.7568C83.8115 64.5945 84.8134 64.401 85.4564 64.1763C85.4626 63.9453 85.4657 63.7986 85.4657 63.7362C85.4657 63.0495 85.3065 62.5657 84.9882 62.2848C84.5574 61.904 83.9176 61.7136 83.0686 61.7136C82.2758 61.7136 81.689 61.8541 81.3082 62.135C80.9337 62.4096 80.6559 62.8997 80.4749 63.6051L78.8268 63.3803C78.9767 62.6749 79.2232 62.1069 79.5666 61.6761C79.9099 61.2392 80.4062 60.9052 81.0554 60.6742C81.7046 60.437 82.4568 60.3184 83.3121 60.3184C84.161 60.3184 84.8508 60.4183 85.3814 60.618C85.9121 60.8178 86.3022 61.0706 86.5519 61.3765C86.8016 61.6761 86.9764 62.0569 87.0763 62.5189C87.1325 62.806 87.1606 63.3242 87.1606 64.0733V66.3206C87.1606 67.8874 87.1949 68.88 87.2636 69.2982C87.3385 69.7102 87.482 70.1066 87.6943 70.4874H85.9339C85.7591 70.1378 85.6468 69.729 85.5968 69.2608ZM85.4564 65.4966C84.8446 65.7462 83.9269 65.9585 82.7034 66.1333C82.0105 66.2332 81.5205 66.3455 81.2333 66.4704C80.9462 66.5952 80.7246 66.7794 80.5685 67.0228C80.4124 67.2601 80.3344 67.5254 80.3344 67.8188C80.3344 68.2682 80.5029 68.6428 80.84 68.9424C81.1834 69.242 81.6828 69.3919 82.3382 69.3919C82.9875 69.3919 83.5649 69.2514 84.0705 68.9705C84.5762 68.6833 84.9476 68.2932 85.1848 67.8C85.3658 67.4192 85.4564 66.8574 85.4564 66.1146V65.4966Z" stroke="white" stroke-width="2" mask="url(#path-1-inside-1_6_14)"/>
<path d="M93.6785 67.5191L95.3452 67.2569C95.4388 67.9249 95.6979 68.4368 96.1224 68.7926C96.5531 69.1484 97.1524 69.3263 97.9202 69.3263C98.6943 69.3263 99.2686 69.1703 99.6432 68.8581C100.018 68.5398 100.205 68.1683 100.205 67.7438C100.205 67.3631 100.04 67.0634 99.7087 66.8449C99.4777 66.6951 98.9034 66.5047 97.9858 66.2737C96.7498 65.9616 95.8914 65.6932 95.4108 65.4685C94.9363 65.2375 94.5743 64.9222 94.3246 64.5227C94.0811 64.117 93.9594 63.6706 93.9594 63.1837C93.9594 62.7405 94.0593 62.3316 94.259 61.9571C94.465 61.5763 94.7428 61.261 95.0924 61.0113C95.3546 60.8178 95.7104 60.6555 96.1599 60.5244C96.6156 60.3871 97.1025 60.3184 97.6206 60.3184C98.4009 60.3184 99.0845 60.4308 99.6712 60.6555C100.264 60.8802 100.701 61.1861 100.982 61.5731C101.263 61.9539 101.457 62.4658 101.563 63.1088L99.9147 63.3335C99.8398 62.8216 99.6213 62.4221 99.2592 62.135C98.9034 61.8478 98.3978 61.7042 97.7423 61.7042C96.9683 61.7042 96.4158 61.8322 96.0849 62.0882C95.7541 62.3441 95.5887 62.6437 95.5887 62.9871C95.5887 63.2056 95.6573 63.4022 95.7947 63.577C95.932 63.758 96.1474 63.9078 96.4408 64.0264C96.6093 64.0889 97.1056 64.2324 97.9296 64.4572C99.1219 64.7755 99.9522 65.0377 100.42 65.2437C100.895 65.4435 101.266 65.7369 101.535 66.1239C101.803 66.511 101.937 66.9916 101.937 67.5659C101.937 68.1278 101.772 68.6584 101.441 69.1578C101.116 69.6509 100.645 70.0348 100.027 70.3095C99.4091 70.5779 98.7099 70.7121 97.9296 70.7121C96.6374 70.7121 95.6511 70.4437 94.9707 69.9069C94.2965 69.37 93.8657 68.5741 93.6785 67.5191Z" stroke="white" stroke-width="2" mask="url(#path-1-inside-1_6_14)"/>
<path d="M110.365 67.285L112.107 67.5004C111.832 68.5179 111.323 69.3076 110.58 69.8694C109.838 70.4312 108.889 70.7121 107.734 70.7121C106.279 70.7121 105.124 70.2658 104.269 69.3731C103.42 68.4742 102.996 67.2164 102.996 65.5996C102.996 63.9266 103.426 62.6281 104.288 61.7042C105.149 60.7804 106.267 60.3184 107.64 60.3184C108.97 60.3184 110.056 60.771 110.899 61.6761C111.741 62.5813 112.163 63.8548 112.163 65.4966C112.163 65.5964 112.16 65.7462 112.153 65.946H104.737C104.8 67.0384 105.109 67.8749 105.664 68.4555C106.22 69.036 106.913 69.3263 107.743 69.3263C108.361 69.3263 108.889 69.164 109.326 68.8394C109.763 68.5148 110.109 67.9967 110.365 67.285ZM104.831 64.5602H110.384C110.309 63.7237 110.097 63.0963 109.747 62.6781C109.21 62.0288 108.514 61.7042 107.659 61.7042C106.885 61.7042 106.232 61.9633 105.702 62.4814C105.177 62.9996 104.887 63.6925 104.831 64.5602Z" stroke="white" stroke-width="2" mask="url(#path-1-inside-1_6_14)"/>
<path d="M120.3 70.4874V69.2327C119.67 70.219 118.743 70.7121 117.519 70.7121C116.726 70.7121 115.996 70.4937 115.328 70.0567C114.666 69.6197 114.151 69.0111 113.783 68.2308C113.421 67.4442 113.24 66.5422 113.24 65.5246C113.24 64.5321 113.405 63.6332 113.736 62.8279C114.067 62.0164 114.563 61.3952 115.225 60.9645C115.887 60.5338 116.627 60.3184 117.444 60.3184C118.044 60.3184 118.577 60.4464 119.046 60.7023C119.514 60.952 119.895 61.2797 120.188 61.6855V56.7602H121.864V70.4874H120.3ZM114.972 65.5246C114.972 66.7981 115.241 67.7501 115.778 68.3806C116.314 69.0111 116.948 69.3263 117.678 69.3263C118.415 69.3263 119.039 69.0267 119.551 68.4274C120.069 67.8219 120.328 66.9011 120.328 65.6651C120.328 64.3042 120.066 63.3054 119.542 62.6687C119.017 62.032 118.371 61.7136 117.604 61.7136C116.854 61.7136 116.227 62.0195 115.721 62.6312C115.222 63.243 114.972 64.2075 114.972 65.5246Z" stroke="white" stroke-width="2" mask="url(#path-1-inside-1_6_14)"/>
<path d="M130.629 69.2608C130.005 69.7914 129.402 70.1659 128.822 70.3844C128.247 70.6029 127.629 70.7121 126.968 70.7121C125.875 70.7121 125.036 70.4468 124.449 69.9162C123.862 69.3794 123.569 68.6958 123.569 67.8656C123.569 67.3787 123.678 66.9354 123.896 66.5359C124.121 66.1302 124.411 65.8056 124.767 65.5621C125.129 65.3186 125.535 65.1345 125.984 65.0096C126.315 64.9222 126.815 64.838 127.483 64.7568C128.844 64.5945 129.845 64.401 130.488 64.1763C130.495 63.9453 130.498 63.7986 130.498 63.7362C130.498 63.0495 130.339 62.5657 130.02 62.2848C129.589 61.904 128.95 61.7136 128.101 61.7136C127.308 61.7136 126.721 61.8541 126.34 62.135C125.966 62.4096 125.688 62.8997 125.507 63.6051L123.859 63.3803C124.009 62.6749 124.255 62.1069 124.599 61.6761C124.942 61.2392 125.438 60.9052 126.087 60.6742C126.737 60.437 127.489 60.3184 128.344 60.3184C129.193 60.3184 129.883 60.4183 130.413 60.618C130.944 60.8178 131.334 61.0706 131.584 61.3765C131.834 61.6761 132.008 62.0569 132.108 62.5189C132.165 62.806 132.193 63.3242 132.193 64.0733V66.3206C132.193 67.8874 132.227 68.88 132.296 69.2982C132.371 69.7102 132.514 70.1066 132.726 70.4874H130.966C130.791 70.1378 130.679 69.729 130.629 69.2608ZM130.488 65.4966C129.877 65.7462 128.959 65.9585 127.735 66.1333C127.043 66.2332 126.553 66.3455 126.265 66.4704C125.978 66.5952 125.757 66.7794 125.601 67.0228C125.444 67.2601 125.366 67.5254 125.366 67.8188C125.366 68.2682 125.535 68.6428 125.872 68.9424C126.215 69.242 126.715 69.3919 127.37 69.3919C128.02 69.3919 128.597 69.2514 129.103 68.9705C129.608 68.6833 129.98 68.2932 130.217 67.8C130.398 67.4192 130.488 66.8574 130.488 66.1146V65.4966Z" stroke="white" stroke-width="2" mask="url(#path-1-inside-1_6_14)"/>
</svg>
