<svg width="244" height="107" viewBox="0 0 244 107" fill="none" xmlns="http://www.w3.org/2000/svg">
<mask id="path-1-inside-1_6_14" fill="white">
<path d="M0.552002 63.832C2.792 63.832 4.36 63.704 5.256 63.448C6.216 63.192 6.824 62.712 7.08 62.008C7.4 61.304 7.56 60.12 7.56 58.456V12.376C7.56 10.648 7.4 9.43202 7.08 8.72801C6.824 7.96002 6.216 7.44802 5.256 7.19202C4.36 6.93602 2.792 6.80802 0.552002 6.80802V3.64002H29.256V6.80802C27.016 6.80802 25.416 6.93602 24.456 7.19202C23.496 7.44802 22.856 7.96002 22.536 8.72801C22.28 9.43202 22.152 10.648 22.152 12.376V57.304C22.152 59.224 22.344 60.6 22.728 61.432C23.112 62.2 23.816 62.712 24.84 62.968C25.928 63.224 27.688 63.352 30.12 63.352C35.432 63.352 39.432 62.392 42.12 60.472C44.808 58.552 46.728 55.064 47.88 50.008H51.24L50.088 67H0.552002V63.832Z"/>
<path d="M81.168 68.056C73.104 68.056 67.12 66.136 63.216 62.296C59.312 58.456 57.36 52.536 57.36 44.536C57.36 36.472 59.312 30.488 63.216 26.584C67.184 22.68 73.232 20.728 81.36 20.728C89.36 20.728 95.28 22.648 99.12 26.488C102.96 30.328 104.88 36.28 104.88 44.344C104.88 52.472 102.928 58.456 99.024 62.296C95.184 66.136 89.232 68.056 81.168 68.056ZM81.264 64.696C84.528 64.696 86.896 63.16 88.368 60.088C89.84 57.016 90.576 52.216 90.576 45.688C90.576 38.136 89.84 32.664 88.368 29.272C86.896 25.88 84.464 24.184 81.072 24.184C77.744 24.184 75.344 25.88 73.872 29.272C72.4 32.6 71.664 37.72 71.664 44.632C71.664 51.736 72.4 56.856 73.872 59.992C75.344 63.128 77.808 64.696 81.264 64.696Z"/>
<path d="M160.023 59.032C160.023 60.44 160.151 61.464 160.407 62.104C160.663 62.744 161.175 63.192 161.943 63.448C162.775 63.704 164.087 63.832 165.879 63.832V67H141.399V63.832C142.935 63.832 144.023 63.736 144.663 63.544C145.367 63.352 145.815 62.968 146.007 62.392C146.263 61.816 146.391 60.856 146.391 59.512V36.472C146.391 29.944 144.055 26.68 139.383 26.68C137.719 26.68 136.215 27.064 134.871 27.832C133.591 28.536 132.151 29.688 130.551 31.288V59.224C130.551 60.632 130.679 61.656 130.935 62.296C131.255 62.936 131.767 63.352 132.471 63.544C133.175 63.736 134.295 63.832 135.831 63.832V67H110.775V63.832C112.631 63.832 113.975 63.704 114.807 63.448C115.639 63.192 116.183 62.744 116.439 62.104C116.759 61.464 116.919 60.44 116.919 59.032V30.616C116.919 29.144 116.727 28.184 116.343 27.736C116.023 27.224 115.287 26.968 114.135 26.968H110.967V23.8L126.039 21.4H130.167V27.736H130.455C132.695 25.624 135.031 23.96 137.463 22.744C139.959 21.464 142.839 20.824 146.103 20.824C150.519 20.824 153.943 22.072 156.375 24.568C158.807 27.064 160.023 30.84 160.023 35.896V59.032Z"/>
<path d="M179.62 16.12C177.508 16.12 175.653 15.384 174.053 13.912C172.517 12.44 171.749 10.648 171.749 8.53602C171.749 6.42402 172.517 4.63202 174.053 3.16002C175.653 1.62402 177.541 0.856018 179.717 0.856018C181.829 0.856018 183.653 1.62402 185.189 3.16002C186.789 4.63202 187.589 6.39202 187.589 8.44002C187.589 10.552 186.789 12.376 185.189 13.912C183.589 15.384 181.732 16.12 179.62 16.12ZM169.732 106.548C166.468 106.548 163.685 105.812 161.381 104.34C159.013 102.932 157.829 100.884 157.829 98.196C157.829 96.468 158.372 94.996 159.46 93.78C160.548 92.628 161.925 92.052 163.589 92.052C165.189 92.052 166.565 92.468 167.717 93.3C168.805 94.132 169.381 95.38 169.445 97.044C169.445 97.684 169.349 98.196 169.157 98.58C168.965 98.964 168.709 99.412 168.389 99.924C168.325 99.988 168.165 100.18 167.909 100.5C167.717 100.884 167.62 101.3 167.62 101.748C167.62 102.324 167.877 102.772 168.389 103.092C168.901 103.412 169.412 103.572 169.924 103.572C170.948 103.572 171.685 103.316 172.133 102.804C172.581 102.292 172.869 101.332 172.997 99.924C173.189 98.516 173.285 96.308 173.285 93.3V30.616C173.285 29.144 173.092 28.184 172.708 27.736C172.388 27.224 171.653 26.968 170.501 26.968H167.333V23.8L182.596 21.4H186.917V64.984C186.917 71.896 185.476 96.532 182.596 100.5C179.716 104.532 175.428 106.548 169.732 106.548Z"/>
<path d="M243.905 64.984C240.705 67.032 236.865 68.056 232.385 68.056C229.953 68.056 228.001 67.64 226.529 66.808C225.057 65.976 224.096 64.824 223.648 63.352C219.68 66.488 215.169 68.056 210.113 68.056C205.889 68.056 202.624 67.192 200.32 65.464C198.016 63.736 196.865 61.208 196.865 57.88C196.865 53.592 199.2 49.944 203.872 46.936C208.544 43.928 215.041 41.656 223.361 40.12V32.92C223.297 30.104 222.753 28.056 221.729 26.776C220.705 25.432 218.849 24.76 216.161 24.76C214.625 24.76 213.313 25.016 212.225 25.528C211.137 25.976 210.592 26.552 210.592 27.256C210.592 27.768 210.913 28.408 211.553 29.176C212.065 29.816 212.417 30.36 212.609 30.808C212.865 31.256 212.993 31.896 212.993 32.728C212.993 34.392 212.385 35.832 211.169 37.048C209.953 38.2 208.352 38.776 206.368 38.776C204.32 38.776 202.689 38.2 201.473 37.048C200.321 35.832 199.745 34.424 199.745 32.824C199.745 30.84 200.48 28.952 201.952 27.16C203.488 25.368 205.857 23.896 209.057 22.744C212.257 21.528 216.257 20.92 221.057 20.92C226.561 20.92 230.561 22.168 233.057 24.664C235.617 27.096 236.896 30.968 236.896 36.28V57.4C236.896 59.704 237.089 61.24 237.473 62.008C237.921 62.776 238.625 63.16 239.585 63.16C240.417 63.16 241.121 63.032 241.697 62.776C242.337 62.456 242.721 62.264 242.849 62.2L243.905 64.984ZM210.4 55.672C210.4 57.976 210.88 59.672 211.84 60.76C212.865 61.784 214.433 62.296 216.545 62.296C218.593 62.296 220.865 61.368 223.361 59.512V44.056C218.881 45.272 215.585 46.808 213.473 48.664C211.425 50.52 210.4 52.856 210.4 55.672Z"/>
<path d="M70.1169 88V86.4297C69.3278 87.6641 68.1677 88.2813 66.6364 88.2813C65.6442 88.2813 64.7302 88.0078 63.8942 87.461C63.0661 86.9141 62.4216 86.1524 61.9606 85.1758C61.5075 84.1914 61.2809 83.0625 61.2809 81.7891C61.2809 80.5469 61.488 79.4219 61.902 78.4141C62.3161 77.3985 62.9372 76.6211 63.7653 76.082C64.5934 75.543 65.5192 75.2735 66.5427 75.2735C67.2927 75.2735 67.9606 75.4336 68.5466 75.7539C69.1325 76.0664 69.6091 76.4766 69.9763 76.9844V70.8203H72.0739V88H70.1169ZM63.4489 81.7891C63.4489 83.3828 63.7849 84.5742 64.4567 85.3633C65.1286 86.1524 65.9216 86.5469 66.8356 86.5469C67.7575 86.5469 68.5388 86.1719 69.1794 85.4219C69.8278 84.6641 70.152 83.5117 70.152 81.9649C70.152 80.2617 69.8239 79.0117 69.1677 78.2149C68.5114 77.418 67.7028 77.0195 66.7419 77.0195C65.8044 77.0195 65.0192 77.4024 64.3864 78.168C63.7614 78.9336 63.4489 80.1406 63.4489 81.7891Z"/>
<path d="M83.4416 83.9922L85.6213 84.2617C85.2775 85.5352 84.6408 86.5235 83.7111 87.2266C82.7814 87.9297 81.5939 88.2813 80.1486 88.2813C78.3283 88.2813 76.883 87.7227 75.8127 86.6055C74.7502 85.4805 74.2189 83.9063 74.2189 81.8828C74.2189 79.7891 74.758 78.1641 75.8361 77.0078C76.9142 75.8516 78.3127 75.2735 80.0314 75.2735C81.6955 75.2735 83.0549 75.8399 84.1095 76.9727C85.1642 78.1055 85.6916 79.6992 85.6916 81.7539C85.6916 81.8789 85.6877 82.0664 85.6799 82.3164H76.3986C76.4767 83.6836 76.8634 84.7305 77.5588 85.457C78.2541 86.1836 79.1213 86.5469 80.1603 86.5469C80.9338 86.5469 81.5939 86.3438 82.1408 85.9375C82.6877 85.5313 83.1213 84.8828 83.4416 83.9922ZM76.5158 80.582H83.465C83.3713 79.5352 83.1056 78.75 82.6681 78.2266C81.9963 77.4141 81.1252 77.0078 80.0549 77.0078C79.0861 77.0078 78.2697 77.332 77.6056 77.9805C76.9494 78.6289 76.5861 79.4961 76.5158 80.582Z"/>
<path d="M93.9542 88V70.8203H96.0636V88H93.9542Z"/>
<path d="M106.986 86.4649C106.205 87.1289 105.451 87.5977 104.724 87.8711C104.005 88.1445 103.232 88.2813 102.404 88.2813C101.037 88.2813 99.9859 87.9492 99.2516 87.2852C98.5172 86.6133 98.15 85.7578 98.15 84.7188C98.15 84.1094 98.2867 83.5547 98.5602 83.0547C98.8414 82.5469 99.2047 82.1406 99.65 81.836C100.103 81.5313 100.611 81.3008 101.173 81.1445C101.588 81.0352 102.213 80.9297 103.048 80.8281C104.752 80.625 106.005 80.3828 106.81 80.1016C106.818 79.8125 106.822 79.6289 106.822 79.5508C106.822 78.6914 106.623 78.086 106.224 77.7344C105.685 77.2578 104.884 77.0195 103.822 77.0195C102.83 77.0195 102.095 77.1953 101.619 77.5469C101.15 77.8906 100.802 78.5039 100.576 79.3867L98.5133 79.1055C98.7008 78.2227 99.0094 77.5117 99.4391 76.9727C99.8688 76.4258 100.49 76.0078 101.302 75.7188C102.115 75.4219 103.056 75.2735 104.127 75.2735C105.189 75.2735 106.052 75.3985 106.716 75.6485C107.38 75.8985 107.869 76.2149 108.181 76.5977C108.494 76.9727 108.713 77.4492 108.838 78.0274C108.908 78.3867 108.943 79.0352 108.943 79.9727V82.7852C108.943 84.7461 108.986 85.9883 109.072 86.5117C109.166 87.0274 109.345 87.5235 109.611 88H107.408C107.189 87.5625 107.048 87.0508 106.986 86.4649ZM106.81 81.7539C106.045 82.0664 104.896 82.332 103.365 82.5508C102.498 82.6758 101.884 82.8164 101.525 82.9727C101.166 83.1289 100.888 83.3594 100.693 83.6641C100.498 83.961 100.4 84.293 100.4 84.6602C100.4 85.2227 100.611 85.6914 101.033 86.0664C101.463 86.4414 102.088 86.6289 102.908 86.6289C103.72 86.6289 104.443 86.4531 105.076 86.1016C105.709 85.7422 106.173 85.2539 106.47 84.6367C106.697 84.1602 106.81 83.457 106.81 82.5274V81.7539Z"/>
<path d="M117.1 84.2852L119.186 83.957C119.303 84.793 119.628 85.4336 120.159 85.8789C120.698 86.3242 121.448 86.5469 122.409 86.5469C123.378 86.5469 124.096 86.3516 124.565 85.961C125.034 85.5625 125.268 85.0977 125.268 84.5664C125.268 84.0899 125.061 83.7149 124.647 83.4414C124.358 83.2539 123.639 83.0156 122.491 82.7266C120.944 82.336 119.87 82 119.268 81.7188C118.674 81.4297 118.221 81.0352 117.909 80.5352C117.604 80.0274 117.452 79.4688 117.452 78.8594C117.452 78.3047 117.577 77.793 117.827 77.3242C118.085 76.8477 118.432 76.4531 118.87 76.1406C119.198 75.8985 119.643 75.6953 120.206 75.5313C120.776 75.3594 121.385 75.2735 122.034 75.2735C123.01 75.2735 123.866 75.4141 124.6 75.6953C125.342 75.9766 125.889 76.3594 126.241 76.8438C126.592 77.3203 126.835 77.961 126.967 78.7656L124.905 79.0469C124.811 78.4063 124.538 77.9063 124.085 77.5469C123.639 77.1875 123.006 77.0078 122.186 77.0078C121.217 77.0078 120.526 77.168 120.112 77.4883C119.698 77.8086 119.491 78.1836 119.491 78.6133C119.491 78.8867 119.577 79.1328 119.749 79.3516C119.92 79.5781 120.19 79.7656 120.557 79.9141C120.768 79.9922 121.389 80.1719 122.42 80.4531C123.913 80.8516 124.952 81.1797 125.538 81.4375C126.131 81.6875 126.596 82.0547 126.932 82.5391C127.268 83.0235 127.436 83.625 127.436 84.3438C127.436 85.0469 127.229 85.711 126.815 86.336C126.409 86.9531 125.819 87.4336 125.045 87.7774C124.272 88.1133 123.397 88.2813 122.42 88.2813C120.803 88.2813 119.569 87.9453 118.717 87.2735C117.874 86.6016 117.335 85.6055 117.1 84.2852Z"/>
<path d="M137.983 83.9922L140.163 84.2617C139.819 85.5352 139.183 86.5235 138.253 87.2266C137.323 87.9297 136.136 88.2813 134.69 88.2813C132.87 88.2813 131.425 87.7227 130.355 86.6055C129.292 85.4805 128.761 83.9063 128.761 81.8828C128.761 79.7891 129.3 78.1641 130.378 77.0078C131.456 75.8516 132.855 75.2735 134.573 75.2735C136.237 75.2735 137.597 75.8399 138.651 76.9727C139.706 78.1055 140.233 79.6992 140.233 81.7539C140.233 81.8789 140.23 82.0664 140.222 82.3164H130.94C131.019 83.6836 131.405 84.7305 132.101 85.457C132.796 86.1836 133.663 86.5469 134.702 86.5469C135.476 86.5469 136.136 86.3438 136.683 85.9375C137.23 85.5313 137.663 84.8828 137.983 83.9922ZM131.058 80.582H138.007C137.913 79.5352 137.648 78.75 137.21 78.2266C136.538 77.4141 135.667 77.0078 134.597 77.0078C133.628 77.0078 132.812 77.332 132.148 77.9805C131.491 78.6289 131.128 79.4961 131.058 80.582Z"/>
<path d="M150.418 88V86.4297C149.628 87.6641 148.468 88.2813 146.937 88.2813C145.945 88.2813 145.031 88.0078 144.195 87.461C143.367 86.9141 142.722 86.1524 142.261 85.1758C141.808 84.1914 141.582 83.0625 141.582 81.7891C141.582 80.5469 141.789 79.4219 142.203 78.4141C142.617 77.3985 143.238 76.6211 144.066 76.082C144.894 75.543 145.82 75.2735 146.843 75.2735C147.593 75.2735 148.261 75.4336 148.847 75.7539C149.433 76.0664 149.91 76.4766 150.277 76.9844V70.8203H152.375V88H150.418ZM143.75 81.7891C143.75 83.3828 144.085 84.5742 144.757 85.3633C145.429 86.1524 146.222 86.5469 147.136 86.5469C148.058 86.5469 148.839 86.1719 149.48 85.4219C150.128 84.6641 150.453 83.5117 150.453 81.9649C150.453 80.2617 150.125 79.0117 149.468 78.2149C148.812 77.418 148.003 77.0195 147.043 77.0195C146.105 77.0195 145.32 77.4024 144.687 78.168C144.062 78.9336 143.75 80.1406 143.75 81.7891Z"/>
<path d="M163.344 86.4649C162.562 87.1289 161.809 87.5977 161.082 87.8711C160.363 88.1445 159.59 88.2813 158.762 88.2813C157.395 88.2813 156.344 87.9492 155.609 87.2852C154.875 86.6133 154.508 85.7578 154.508 84.7188C154.508 84.1094 154.645 83.5547 154.918 83.0547C155.199 82.5469 155.562 82.1406 156.008 81.836C156.461 81.5313 156.969 81.3008 157.531 81.1445C157.945 81.0352 158.57 80.9297 159.406 80.8281C161.109 80.625 162.363 80.3828 163.168 80.1016C163.176 79.8125 163.18 79.6289 163.18 79.5508C163.18 78.6914 162.98 78.086 162.582 77.7344C162.043 77.2578 161.242 77.0195 160.18 77.0195C159.188 77.0195 158.453 77.1953 157.977 77.5469C157.508 77.8906 157.16 78.5039 156.934 79.3867L154.871 79.1055C155.059 78.2227 155.367 77.5117 155.797 76.9727C156.227 76.4258 156.848 76.0078 157.66 75.7188C158.473 75.4219 159.414 75.2735 160.484 75.2735C161.547 75.2735 162.41 75.3985 163.074 75.6485C163.738 75.8985 164.227 76.2149 164.539 76.5977C164.852 76.9727 165.07 77.4492 165.195 78.0274C165.266 78.3867 165.301 79.0352 165.301 79.9727V82.7852C165.301 84.7461 165.344 85.9883 165.43 86.5117C165.523 87.0274 165.703 87.5235 165.969 88H163.766C163.547 87.5625 163.406 87.0508 163.344 86.4649ZM163.168 81.7539C162.402 82.0664 161.254 82.332 159.723 82.5508C158.855 82.6758 158.242 82.8164 157.883 82.9727C157.523 83.1289 157.246 83.3594 157.051 83.6641C156.855 83.961 156.758 84.293 156.758 84.6602C156.758 85.2227 156.969 85.6914 157.391 86.0664C157.82 86.4414 158.445 86.6289 159.266 86.6289C160.078 86.6289 160.801 86.4531 161.434 86.1016C162.066 85.7422 162.531 85.2539 162.828 84.6367C163.055 84.1602 163.168 83.457 163.168 82.5274V81.7539Z"/>
</mask>
<path class="svglogo" d="M0.552002 63.832C2.792 63.832 4.36 63.704 5.256 63.448C6.216 63.192 6.824 62.712 7.08 62.008C7.4 61.304 7.56 60.12 7.56 58.456V12.376C7.56 10.648 7.4 9.43202 7.08 8.72801C6.824 7.96002 6.216 7.44802 5.256 7.19202C4.36 6.93602 2.792 6.80802 0.552002 6.80802V3.64002H29.256V6.80802C27.016 6.80802 25.416 6.93602 24.456 7.19202C23.496 7.44802 22.856 7.96002 22.536 8.72801C22.28 9.43202 22.152 10.648 22.152 12.376V57.304C22.152 59.224 22.344 60.6 22.728 61.432C23.112 62.2 23.816 62.712 24.84 62.968C25.928 63.224 27.688 63.352 30.12 63.352C35.432 63.352 39.432 62.392 42.12 60.472C44.808 58.552 46.728 55.064 47.88 50.008H51.24L50.088 67H0.552002V63.832Z" fill="black"/>
<path class="svglogo" d="M81.168 68.056C73.104 68.056 67.12 66.136 63.216 62.296C59.312 58.456 57.36 52.536 57.36 44.536C57.36 36.472 59.312 30.488 63.216 26.584C67.184 22.68 73.232 20.728 81.36 20.728C89.36 20.728 95.28 22.648 99.12 26.488C102.96 30.328 104.88 36.28 104.88 44.344C104.88 52.472 102.928 58.456 99.024 62.296C95.184 66.136 89.232 68.056 81.168 68.056ZM81.264 64.696C84.528 64.696 86.896 63.16 88.368 60.088C89.84 57.016 90.576 52.216 90.576 45.688C90.576 38.136 89.84 32.664 88.368 29.272C86.896 25.88 84.464 24.184 81.072 24.184C77.744 24.184 75.344 25.88 73.872 29.272C72.4 32.6 71.664 37.72 71.664 44.632C71.664 51.736 72.4 56.856 73.872 59.992C75.344 63.128 77.808 64.696 81.264 64.696Z" fill="black"/>
<path class="svglogo" d="M160.023 59.032C160.023 60.44 160.151 61.464 160.407 62.104C160.663 62.744 161.175 63.192 161.943 63.448C162.775 63.704 164.087 63.832 165.879 63.832V67H141.399V63.832C142.935 63.832 144.023 63.736 144.663 63.544C145.367 63.352 145.815 62.968 146.007 62.392C146.263 61.816 146.391 60.856 146.391 59.512V36.472C146.391 29.944 144.055 26.68 139.383 26.68C137.719 26.68 136.215 27.064 134.871 27.832C133.591 28.536 132.151 29.688 130.551 31.288V59.224C130.551 60.632 130.679 61.656 130.935 62.296C131.255 62.936 131.767 63.352 132.471 63.544C133.175 63.736 134.295 63.832 135.831 63.832V67H110.775V63.832C112.631 63.832 113.975 63.704 114.807 63.448C115.639 63.192 116.183 62.744 116.439 62.104C116.759 61.464 116.919 60.44 116.919 59.032V30.616C116.919 29.144 116.727 28.184 116.343 27.736C116.023 27.224 115.287 26.968 114.135 26.968H110.967V23.8L126.039 21.4H130.167V27.736H130.455C132.695 25.624 135.031 23.96 137.463 22.744C139.959 21.464 142.839 20.824 146.103 20.824C150.519 20.824 153.943 22.072 156.375 24.568C158.807 27.064 160.023 30.84 160.023 35.896V59.032Z" fill="black"/>
<path id="svglogo" d="M179.62 16.12C177.508 16.12 175.653 15.384 174.053 13.912C172.517 12.44 171.749 10.648 171.749 8.53602C171.749 6.42402 172.517 4.63202 174.053 3.16002C175.653 1.62402 177.541 0.856018 179.717 0.856018C181.829 0.856018 183.653 1.62402 185.189 3.16002C186.789 4.63202 187.589 6.39202 187.589 8.44002C187.589 10.552 186.789 12.376 185.189 13.912C183.589 15.384 181.732 16.12 179.62 16.12ZM169.732 106.548C166.468 106.548 163.685 105.812 161.381 104.34C159.013 102.932 157.829 100.884 157.829 98.196C157.829 96.468 158.372 94.996 159.46 93.78C160.548 92.628 161.925 92.052 163.589 92.052C165.189 92.052 166.565 92.468 167.717 93.3C168.805 94.132 169.381 95.38 169.445 97.044C169.445 97.684 169.349 98.196 169.157 98.58C168.965 98.964 168.709 99.412 168.389 99.924C168.325 99.988 168.165 100.18 167.909 100.5C167.717 100.884 167.62 101.3 167.62 101.748C167.62 102.324 167.877 102.772 168.389 103.092C168.901 103.412 169.412 103.572 169.924 103.572C170.948 103.572 171.685 103.316 172.133 102.804C172.581 102.292 172.869 101.332 172.997 99.924C173.189 98.516 173.285 96.308 173.285 93.3V30.616C173.285 29.144 173.092 28.184 172.708 27.736C172.388 27.224 171.653 26.968 170.501 26.968H167.333V23.8L182.596 21.4H186.917V64.984C186.917 71.896 185.476 96.532 182.596 100.5C179.716 104.532 175.428 106.548 169.732 106.548Z" fill="black"/>
<path class="svglogo" d="M243.905 64.984C240.705 67.032 236.865 68.056 232.385 68.056C229.953 68.056 228.001 67.64 226.529 66.808C225.057 65.976 224.096 64.824 223.648 63.352C219.68 66.488 215.169 68.056 210.113 68.056C205.889 68.056 202.624 67.192 200.32 65.464C198.016 63.736 196.865 61.208 196.865 57.88C196.865 53.592 199.2 49.944 203.872 46.936C208.544 43.928 215.041 41.656 223.361 40.12V32.92C223.297 30.104 222.753 28.056 221.729 26.776C220.705 25.432 218.849 24.76 216.161 24.76C214.625 24.76 213.313 25.016 212.225 25.528C211.137 25.976 210.592 26.552 210.592 27.256C210.592 27.768 210.913 28.408 211.553 29.176C212.065 29.816 212.417 30.36 212.609 30.808C212.865 31.256 212.993 31.896 212.993 32.728C212.993 34.392 212.385 35.832 211.169 37.048C209.953 38.2 208.352 38.776 206.368 38.776C204.32 38.776 202.689 38.2 201.473 37.048C200.321 35.832 199.745 34.424 199.745 32.824C199.745 30.84 200.48 28.952 201.952 27.16C203.488 25.368 205.857 23.896 209.057 22.744C212.257 21.528 216.257 20.92 221.057 20.92C226.561 20.92 230.561 22.168 233.057 24.664C235.617 27.096 236.896 30.968 236.896 36.28V57.4C236.896 59.704 237.089 61.24 237.473 62.008C237.921 62.776 238.625 63.16 239.585 63.16C240.417 63.16 241.121 63.032 241.697 62.776C242.337 62.456 242.721 62.264 242.849 62.2L243.905 64.984ZM210.4 55.672C210.4 57.976 210.88 59.672 211.84 60.76C212.865 61.784 214.433 62.296 216.545 62.296C218.593 62.296 220.865 61.368 223.361 59.512V44.056C218.881 45.272 215.585 46.808 213.473 48.664C211.425 50.52 210.4 52.856 210.4 55.672Z" fill="black"/>
<path class="svglogo" d="M70.1169 88V86.4297C69.3278 87.6641 68.1677 88.2813 66.6364 88.2813C65.6442 88.2813 64.7302 88.0078 63.8942 87.461C63.0661 86.9141 62.4216 86.1524 61.9606 85.1758C61.5075 84.1914 61.2809 83.0625 61.2809 81.7891C61.2809 80.5469 61.488 79.4219 61.902 78.4141C62.3161 77.3985 62.9372 76.6211 63.7653 76.082C64.5934 75.543 65.5192 75.2735 66.5427 75.2735C67.2927 75.2735 67.9606 75.4336 68.5466 75.7539C69.1325 76.0664 69.6091 76.4766 69.9763 76.9844V70.8203H72.0739V88H70.1169ZM63.4489 81.7891C63.4489 83.3828 63.7849 84.5742 64.4567 85.3633C65.1286 86.1524 65.9216 86.5469 66.8356 86.5469C67.7575 86.5469 68.5388 86.1719 69.1794 85.4219C69.8278 84.6641 70.152 83.5117 70.152 81.9649C70.152 80.2617 69.8239 79.0117 69.1677 78.2149C68.5114 77.418 67.7028 77.0195 66.7419 77.0195C65.8044 77.0195 65.0192 77.4024 64.3864 78.168C63.7614 78.9336 63.4489 80.1406 63.4489 81.7891Z" fill="black"/>
<path class="svglogo" d="M83.4416 83.9922L85.6213 84.2617C85.2775 85.5352 84.6408 86.5235 83.7111 87.2266C82.7814 87.9297 81.5939 88.2813 80.1486 88.2813C78.3283 88.2813 76.883 87.7227 75.8127 86.6055C74.7502 85.4805 74.2189 83.9063 74.2189 81.8828C74.2189 79.7891 74.758 78.1641 75.8361 77.0078C76.9142 75.8516 78.3127 75.2735 80.0314 75.2735C81.6955 75.2735 83.0549 75.8399 84.1095 76.9727C85.1642 78.1055 85.6916 79.6992 85.6916 81.7539C85.6916 81.8789 85.6877 82.0664 85.6799 82.3164H76.3986C76.4767 83.6836 76.8634 84.7305 77.5588 85.457C78.2541 86.1836 79.1213 86.5469 80.1603 86.5469C80.9338 86.5469 81.5939 86.3438 82.1408 85.9375C82.6877 85.5313 83.1213 84.8828 83.4416 83.9922ZM76.5158 80.582H83.465C83.3713 79.5352 83.1056 78.75 82.6681 78.2266C81.9963 77.4141 81.1252 77.0078 80.0549 77.0078C79.0861 77.0078 78.2697 77.332 77.6056 77.9805C76.9494 78.6289 76.5861 79.4961 76.5158 80.582Z" fill="black"/>
<path class="svglogo" d="M93.9542 88V70.8203H96.0636V88H93.9542Z" fill="black"/>
<path class="svglogo" d="M106.986 86.4649C106.205 87.1289 105.451 87.5977 104.724 87.8711C104.005 88.1445 103.232 88.2813 102.404 88.2813C101.037 88.2813 99.9859 87.9492 99.2516 87.2852C98.5172 86.6133 98.15 85.7578 98.15 84.7188C98.15 84.1094 98.2867 83.5547 98.5602 83.0547C98.8414 82.5469 99.2047 82.1406 99.65 81.836C100.103 81.5313 100.611 81.3008 101.173 81.1445C101.588 81.0352 102.213 80.9297 103.048 80.8281C104.752 80.625 106.005 80.3828 106.81 80.1016C106.818 79.8125 106.822 79.6289 106.822 79.5508C106.822 78.6914 106.623 78.086 106.224 77.7344C105.685 77.2578 104.884 77.0195 103.822 77.0195C102.83 77.0195 102.095 77.1953 101.619 77.5469C101.15 77.8906 100.802 78.5039 100.576 79.3867L98.5133 79.1055C98.7008 78.2227 99.0094 77.5117 99.4391 76.9727C99.8688 76.4258 100.49 76.0078 101.302 75.7188C102.115 75.4219 103.056 75.2735 104.127 75.2735C105.189 75.2735 106.052 75.3985 106.716 75.6485C107.38 75.8985 107.869 76.2149 108.181 76.5977C108.494 76.9727 108.713 77.4492 108.838 78.0274C108.908 78.3867 108.943 79.0352 108.943 79.9727V82.7852C108.943 84.7461 108.986 85.9883 109.072 86.5117C109.166 87.0274 109.345 87.5235 109.611 88H107.408C107.189 87.5625 107.048 87.0508 106.986 86.4649ZM106.81 81.7539C106.045 82.0664 104.896 82.332 103.365 82.5508C102.498 82.6758 101.884 82.8164 101.525 82.9727C101.166 83.1289 100.888 83.3594 100.693 83.6641C100.498 83.961 100.4 84.293 100.4 84.6602C100.4 85.2227 100.611 85.6914 101.033 86.0664C101.463 86.4414 102.088 86.6289 102.908 86.6289C103.72 86.6289 104.443 86.4531 105.076 86.1016C105.709 85.7422 106.173 85.2539 106.47 84.6367C106.697 84.1602 106.81 83.457 106.81 82.5274V81.7539Z" fill="black"/>
<path class="svglogo" d="M117.1 84.2852L119.186 83.957C119.303 84.793 119.628 85.4336 120.159 85.8789C120.698 86.3242 121.448 86.5469 122.409 86.5469C123.378 86.5469 124.096 86.3516 124.565 85.961C125.034 85.5625 125.268 85.0977 125.268 84.5664C125.268 84.0899 125.061 83.7149 124.647 83.4414C124.358 83.2539 123.639 83.0156 122.491 82.7266C120.944 82.336 119.87 82 119.268 81.7188C118.674 81.4297 118.221 81.0352 117.909 80.5352C117.604 80.0274 117.452 79.4688 117.452 78.8594C117.452 78.3047 117.577 77.793 117.827 77.3242C118.085 76.8477 118.432 76.4531 118.87 76.1406C119.198 75.8985 119.643 75.6953 120.206 75.5313C120.776 75.3594 121.385 75.2735 122.034 75.2735C123.01 75.2735 123.866 75.4141 124.6 75.6953C125.342 75.9766 125.889 76.3594 126.241 76.8438C126.592 77.3203 126.835 77.961 126.967 78.7656L124.905 79.0469C124.811 78.4063 124.538 77.9063 124.085 77.5469C123.639 77.1875 123.006 77.0078 122.186 77.0078C121.217 77.0078 120.526 77.168 120.112 77.4883C119.698 77.8086 119.491 78.1836 119.491 78.6133C119.491 78.8867 119.577 79.1328 119.749 79.3516C119.92 79.5781 120.19 79.7656 120.557 79.9141C120.768 79.9922 121.389 80.1719 122.42 80.4531C123.913 80.8516 124.952 81.1797 125.538 81.4375C126.131 81.6875 126.596 82.0547 126.932 82.5391C127.268 83.0235 127.436 83.625 127.436 84.3438C127.436 85.0469 127.229 85.711 126.815 86.336C126.409 86.9531 125.819 87.4336 125.045 87.7774C124.272 88.1133 123.397 88.2813 122.42 88.2813C120.803 88.2813 119.569 87.9453 118.717 87.2735C117.874 86.6016 117.335 85.6055 117.1 84.2852Z" fill="black"/>
<path class="svglogo" d="M137.983 83.9922L140.163 84.2617C139.819 85.5352 139.183 86.5235 138.253 87.2266C137.323 87.9297 136.136 88.2813 134.69 88.2813C132.87 88.2813 131.425 87.7227 130.355 86.6055C129.292 85.4805 128.761 83.9063 128.761 81.8828C128.761 79.7891 129.3 78.1641 130.378 77.0078C131.456 75.8516 132.855 75.2735 134.573 75.2735C136.237 75.2735 137.597 75.8399 138.651 76.9727C139.706 78.1055 140.233 79.6992 140.233 81.7539C140.233 81.8789 140.23 82.0664 140.222 82.3164H130.94C131.019 83.6836 131.405 84.7305 132.101 85.457C132.796 86.1836 133.663 86.5469 134.702 86.5469C135.476 86.5469 136.136 86.3438 136.683 85.9375C137.23 85.5313 137.663 84.8828 137.983 83.9922ZM131.058 80.582H138.007C137.913 79.5352 137.648 78.75 137.21 78.2266C136.538 77.4141 135.667 77.0078 134.597 77.0078C133.628 77.0078 132.812 77.332 132.148 77.9805C131.491 78.6289 131.128 79.4961 131.058 80.582Z" fill="black"/>
<path class="svglogo" d="M150.418 88V86.4297C149.628 87.6641 148.468 88.2813 146.937 88.2813C145.945 88.2813 145.031 88.0078 144.195 87.461C143.367 86.9141 142.722 86.1524 142.261 85.1758C141.808 84.1914 141.582 83.0625 141.582 81.7891C141.582 80.5469 141.789 79.4219 142.203 78.4141C142.617 77.3985 143.238 76.6211 144.066 76.082C144.894 75.543 145.82 75.2735 146.843 75.2735C147.593 75.2735 148.261 75.4336 148.847 75.7539C149.433 76.0664 149.91 76.4766 150.277 76.9844V70.8203H152.375V88H150.418ZM143.75 81.7891C143.75 83.3828 144.085 84.5742 144.757 85.3633C145.429 86.1524 146.222 86.5469 147.136 86.5469C148.058 86.5469 148.839 86.1719 149.48 85.4219C150.128 84.6641 150.453 83.5117 150.453 81.9649C150.453 80.2617 150.125 79.0117 149.468 78.2149C148.812 77.418 148.003 77.0195 147.043 77.0195C146.105 77.0195 145.32 77.4024 144.687 78.168C144.062 78.9336 143.75 80.1406 143.75 81.7891Z" fill="black"/>
<path class="svglogo" d="M163.344 86.4649C162.562 87.1289 161.809 87.5977 161.082 87.8711C160.363 88.1445 159.59 88.2813 158.762 88.2813C157.395 88.2813 156.344 87.9492 155.609 87.2852C154.875 86.6133 154.508 85.7578 154.508 84.7188C154.508 84.1094 154.645 83.5547 154.918 83.0547C155.199 82.5469 155.562 82.1406 156.008 81.836C156.461 81.5313 156.969 81.3008 157.531 81.1445C157.945 81.0352 158.57 80.9297 159.406 80.8281C161.109 80.625 162.363 80.3828 163.168 80.1016C163.176 79.8125 163.18 79.6289 163.18 79.5508C163.18 78.6914 162.98 78.086 162.582 77.7344C162.043 77.2578 161.242 77.0195 160.18 77.0195C159.188 77.0195 158.453 77.1953 157.977 77.5469C157.508 77.8906 157.16 78.5039 156.934 79.3867L154.871 79.1055C155.059 78.2227 155.367 77.5117 155.797 76.9727C156.227 76.4258 156.848 76.0078 157.66 75.7188C158.473 75.4219 159.414 75.2735 160.484 75.2735C161.547 75.2735 162.41 75.3985 163.074 75.6485C163.738 75.8985 164.227 76.2149 164.539 76.5977C164.852 76.9727 165.07 77.4492 165.195 78.0274C165.266 78.3867 165.301 79.0352 165.301 79.9727V82.7852C165.301 84.7461 165.344 85.9883 165.43 86.5117C165.523 87.0274 165.703 87.5235 165.969 88H163.766C163.547 87.5625 163.406 87.0508 163.344 86.4649ZM163.168 81.7539C162.402 82.0664 161.254 82.332 159.723 82.5508C158.855 82.6758 158.242 82.8164 157.883 82.9727C157.523 83.1289 157.246 83.3594 157.051 83.6641C156.855 83.961 156.758 84.293 156.758 84.6602C156.758 85.2227 156.969 85.6914 157.391 86.0664C157.82 86.4414 158.445 86.6289 159.266 86.6289C160.078 86.6289 160.801 86.4531 161.434 86.1016C162.066 85.7422 162.531 85.2539 162.828 84.6367C163.055 84.1602 163.168 83.457 163.168 82.5274V81.7539Z" fill="black"/>
<path class="svglogo" d="M0.552002 63.832C2.792 63.832 4.36 63.704 5.256 63.448C6.216 63.192 6.824 62.712 7.08 62.008C7.4 61.304 7.56 60.12 7.56 58.456V12.376C7.56 10.648 7.4 9.43202 7.08 8.72801C6.824 7.96002 6.216 7.44802 5.256 7.19202C4.36 6.93602 2.792 6.80802 0.552002 6.80802V3.64002H29.256V6.80802C27.016 6.80802 25.416 6.93602 24.456 7.19202C23.496 7.44802 22.856 7.96002 22.536 8.72801C22.28 9.43202 22.152 10.648 22.152 12.376V57.304C22.152 59.224 22.344 60.6 22.728 61.432C23.112 62.2 23.816 62.712 24.84 62.968C25.928 63.224 27.688 63.352 30.12 63.352C35.432 63.352 39.432 62.392 42.12 60.472C44.808 58.552 46.728 55.064 47.88 50.008H51.24L50.088 67H0.552002V63.832Z" stroke="black" stroke-width="2" mask="url(#path-1-inside-1_6_14)"/>
<path class="svglogo" d="M81.168 68.056C73.104 68.056 67.12 66.136 63.216 62.296C59.312 58.456 57.36 52.536 57.36 44.536C57.36 36.472 59.312 30.488 63.216 26.584C67.184 22.68 73.232 20.728 81.36 20.728C89.36 20.728 95.28 22.648 99.12 26.488C102.96 30.328 104.88 36.28 104.88 44.344C104.88 52.472 102.928 58.456 99.024 62.296C95.184 66.136 89.232 68.056 81.168 68.056ZM81.264 64.696C84.528 64.696 86.896 63.16 88.368 60.088C89.84 57.016 90.576 52.216 90.576 45.688C90.576 38.136 89.84 32.664 88.368 29.272C86.896 25.88 84.464 24.184 81.072 24.184C77.744 24.184 75.344 25.88 73.872 29.272C72.4 32.6 71.664 37.72 71.664 44.632C71.664 51.736 72.4 56.856 73.872 59.992C75.344 63.128 77.808 64.696 81.264 64.696Z" stroke="black" stroke-width="2" mask="url(#path-1-inside-1_6_14)"/>
<path class="svglogo" d="M160.023 59.032C160.023 60.44 160.151 61.464 160.407 62.104C160.663 62.744 161.175 63.192 161.943 63.448C162.775 63.704 164.087 63.832 165.879 63.832V67H141.399V63.832C142.935 63.832 144.023 63.736 144.663 63.544C145.367 63.352 145.815 62.968 146.007 62.392C146.263 61.816 146.391 60.856 146.391 59.512V36.472C146.391 29.944 144.055 26.68 139.383 26.68C137.719 26.68 136.215 27.064 134.871 27.832C133.591 28.536 132.151 29.688 130.551 31.288V59.224C130.551 60.632 130.679 61.656 130.935 62.296C131.255 62.936 131.767 63.352 132.471 63.544C133.175 63.736 134.295 63.832 135.831 63.832V67H110.775V63.832C112.631 63.832 113.975 63.704 114.807 63.448C115.639 63.192 116.183 62.744 116.439 62.104C116.759 61.464 116.919 60.44 116.919 59.032V30.616C116.919 29.144 116.727 28.184 116.343 27.736C116.023 27.224 115.287 26.968 114.135 26.968H110.967V23.8L126.039 21.4H130.167V27.736H130.455C132.695 25.624 135.031 23.96 137.463 22.744C139.959 21.464 142.839 20.824 146.103 20.824C150.519 20.824 153.943 22.072 156.375 24.568C158.807 27.064 160.023 30.84 160.023 35.896V59.032Z" stroke="black" stroke-width="2" mask="url(#path-1-inside-1_6_14)"/>
<path class="svglogo" d="M179.62 16.12C177.508 16.12 175.653 15.384 174.053 13.912C172.517 12.44 171.749 10.648 171.749 8.53602C171.749 6.42402 172.517 4.63202 174.053 3.16002C175.653 1.62402 177.541 0.856018 179.717 0.856018C181.829 0.856018 183.653 1.62402 185.189 3.16002C186.789 4.63202 187.589 6.39202 187.589 8.44002C187.589 10.552 186.789 12.376 185.189 13.912C183.589 15.384 181.732 16.12 179.62 16.12ZM169.732 106.548C166.468 106.548 163.685 105.812 161.381 104.34C159.013 102.932 157.829 100.884 157.829 98.196C157.829 96.468 158.372 94.996 159.46 93.78C160.548 92.628 161.925 92.052 163.589 92.052C165.189 92.052 166.565 92.468 167.717 93.3C168.805 94.132 169.381 95.38 169.445 97.044C169.445 97.684 169.349 98.196 169.157 98.58C168.965 98.964 168.709 99.412 168.389 99.924C168.325 99.988 168.165 100.18 167.909 100.5C167.717 100.884 167.62 101.3 167.62 101.748C167.62 102.324 167.877 102.772 168.389 103.092C168.901 103.412 169.412 103.572 169.924 103.572C170.948 103.572 171.685 103.316 172.133 102.804C172.581 102.292 172.869 101.332 172.997 99.924C173.189 98.516 173.285 96.308 173.285 93.3V30.616C173.285 29.144 173.092 28.184 172.708 27.736C172.388 27.224 171.653 26.968 170.501 26.968H167.333V23.8L182.596 21.4H186.917V64.984C186.917 71.896 185.476 96.532 182.596 100.5C179.716 104.532 175.428 106.548 169.732 106.548Z" stroke="black" stroke-width="2" mask="url(#path-1-inside-1_6_14)"/>
<path class="svglogo" d="M243.905 64.984C240.705 67.032 236.865 68.056 232.385 68.056C229.953 68.056 228.001 67.64 226.529 66.808C225.057 65.976 224.096 64.824 223.648 63.352C219.68 66.488 215.169 68.056 210.113 68.056C205.889 68.056 202.624 67.192 200.32 65.464C198.016 63.736 196.865 61.208 196.865 57.88C196.865 53.592 199.2 49.944 203.872 46.936C208.544 43.928 215.041 41.656 223.361 40.12V32.92C223.297 30.104 222.753 28.056 221.729 26.776C220.705 25.432 218.849 24.76 216.161 24.76C214.625 24.76 213.313 25.016 212.225 25.528C211.137 25.976 210.592 26.552 210.592 27.256C210.592 27.768 210.913 28.408 211.553 29.176C212.065 29.816 212.417 30.36 212.609 30.808C212.865 31.256 212.993 31.896 212.993 32.728C212.993 34.392 212.385 35.832 211.169 37.048C209.953 38.2 208.352 38.776 206.368 38.776C204.32 38.776 202.689 38.2 201.473 37.048C200.321 35.832 199.745 34.424 199.745 32.824C199.745 30.84 200.48 28.952 201.952 27.16C203.488 25.368 205.857 23.896 209.057 22.744C212.257 21.528 216.257 20.92 221.057 20.92C226.561 20.92 230.561 22.168 233.057 24.664C235.617 27.096 236.896 30.968 236.896 36.28V57.4C236.896 59.704 237.089 61.24 237.473 62.008C237.921 62.776 238.625 63.16 239.585 63.16C240.417 63.16 241.121 63.032 241.697 62.776C242.337 62.456 242.721 62.264 242.849 62.2L243.905 64.984ZM210.4 55.672C210.4 57.976 210.88 59.672 211.84 60.76C212.865 61.784 214.433 62.296 216.545 62.296C218.593 62.296 220.865 61.368 223.361 59.512V44.056C218.881 45.272 215.585 46.808 213.473 48.664C211.425 50.52 210.4 52.856 210.4 55.672Z" stroke="black" stroke-width="2" mask="url(#path-1-inside-1_6_14)"/>
<path class="svglogo" d="M70.1169 88V86.4297C69.3278 87.6641 68.1677 88.2813 66.6364 88.2813C65.6442 88.2813 64.7302 88.0078 63.8942 87.461C63.0661 86.9141 62.4216 86.1524 61.9606 85.1758C61.5075 84.1914 61.2809 83.0625 61.2809 81.7891C61.2809 80.5469 61.488 79.4219 61.902 78.4141C62.3161 77.3985 62.9372 76.6211 63.7653 76.082C64.5934 75.543 65.5192 75.2735 66.5427 75.2735C67.2927 75.2735 67.9606 75.4336 68.5466 75.7539C69.1325 76.0664 69.6091 76.4766 69.9763 76.9844V70.8203H72.0739V88H70.1169ZM63.4489 81.7891C63.4489 83.3828 63.7849 84.5742 64.4567 85.3633C65.1286 86.1524 65.9216 86.5469 66.8356 86.5469C67.7575 86.5469 68.5388 86.1719 69.1794 85.4219C69.8278 84.6641 70.152 83.5117 70.152 81.9649C70.152 80.2617 69.8239 79.0117 69.1677 78.2149C68.5114 77.418 67.7028 77.0195 66.7419 77.0195C65.8044 77.0195 65.0192 77.4024 64.3864 78.168C63.7614 78.9336 63.4489 80.1406 63.4489 81.7891Z" stroke="black" stroke-width="2" mask="url(#path-1-inside-1_6_14)"/>
<path class="svglogo" d="M83.4416 83.9922L85.6213 84.2617C85.2775 85.5352 84.6408 86.5235 83.7111 87.2266C82.7814 87.9297 81.5939 88.2813 80.1486 88.2813C78.3283 88.2813 76.883 87.7227 75.8127 86.6055C74.7502 85.4805 74.2189 83.9063 74.2189 81.8828C74.2189 79.7891 74.758 78.1641 75.8361 77.0078C76.9142 75.8516 78.3127 75.2735 80.0314 75.2735C81.6955 75.2735 83.0549 75.8399 84.1095 76.9727C85.1642 78.1055 85.6916 79.6992 85.6916 81.7539C85.6916 81.8789 85.6877 82.0664 85.6799 82.3164H76.3986C76.4767 83.6836 76.8634 84.7305 77.5588 85.457C78.2541 86.1836 79.1213 86.5469 80.1603 86.5469C80.9338 86.5469 81.5939 86.3438 82.1408 85.9375C82.6877 85.5313 83.1213 84.8828 83.4416 83.9922ZM76.5158 80.582H83.465C83.3713 79.5352 83.1056 78.75 82.6681 78.2266C81.9963 77.4141 81.1252 77.0078 80.0549 77.0078C79.0861 77.0078 78.2697 77.332 77.6056 77.9805C76.9494 78.6289 76.5861 79.4961 76.5158 80.582Z" stroke="black" stroke-width="2" mask="url(#path-1-inside-1_6_14)"/>
<path class="svglogo" d="M93.9542 88V70.8203H96.0636V88H93.9542Z" stroke="black" stroke-width="2" mask="url(#path-1-inside-1_6_14)"/>
<path class="svglogo" d="M106.986 86.4649C106.205 87.1289 105.451 87.5977 104.724 87.8711C104.005 88.1445 103.232 88.2813 102.404 88.2813C101.037 88.2813 99.9859 87.9492 99.2516 87.2852C98.5172 86.6133 98.15 85.7578 98.15 84.7188C98.15 84.1094 98.2867 83.5547 98.5602 83.0547C98.8414 82.5469 99.2047 82.1406 99.65 81.836C100.103 81.5313 100.611 81.3008 101.173 81.1445C101.588 81.0352 102.213 80.9297 103.048 80.8281C104.752 80.625 106.005 80.3828 106.81 80.1016C106.818 79.8125 106.822 79.6289 106.822 79.5508C106.822 78.6914 106.623 78.086 106.224 77.7344C105.685 77.2578 104.884 77.0195 103.822 77.0195C102.83 77.0195 102.095 77.1953 101.619 77.5469C101.15 77.8906 100.802 78.5039 100.576 79.3867L98.5133 79.1055C98.7008 78.2227 99.0094 77.5117 99.4391 76.9727C99.8688 76.4258 100.49 76.0078 101.302 75.7188C102.115 75.4219 103.056 75.2735 104.127 75.2735C105.189 75.2735 106.052 75.3985 106.716 75.6485C107.38 75.8985 107.869 76.2149 108.181 76.5977C108.494 76.9727 108.713 77.4492 108.838 78.0274C108.908 78.3867 108.943 79.0352 108.943 79.9727V82.7852C108.943 84.7461 108.986 85.9883 109.072 86.5117C109.166 87.0274 109.345 87.5235 109.611 88H107.408C107.189 87.5625 107.048 87.0508 106.986 86.4649ZM106.81 81.7539C106.045 82.0664 104.896 82.332 103.365 82.5508C102.498 82.6758 101.884 82.8164 101.525 82.9727C101.166 83.1289 100.888 83.3594 100.693 83.6641C100.498 83.961 100.4 84.293 100.4 84.6602C100.4 85.2227 100.611 85.6914 101.033 86.0664C101.463 86.4414 102.088 86.6289 102.908 86.6289C103.72 86.6289 104.443 86.4531 105.076 86.1016C105.709 85.7422 106.173 85.2539 106.47 84.6367C106.697 84.1602 106.81 83.457 106.81 82.5274V81.7539Z" stroke="black" stroke-width="2" mask="url(#path-1-inside-1_6_14)"/>
<path class="svglogo" d="M117.1 84.2852L119.186 83.957C119.303 84.793 119.628 85.4336 120.159 85.8789C120.698 86.3242 121.448 86.5469 122.409 86.5469C123.378 86.5469 124.096 86.3516 124.565 85.961C125.034 85.5625 125.268 85.0977 125.268 84.5664C125.268 84.0899 125.061 83.7149 124.647 83.4414C124.358 83.2539 123.639 83.0156 122.491 82.7266C120.944 82.336 119.87 82 119.268 81.7188C118.674 81.4297 118.221 81.0352 117.909 80.5352C117.604 80.0274 117.452 79.4688 117.452 78.8594C117.452 78.3047 117.577 77.793 117.827 77.3242C118.085 76.8477 118.432 76.4531 118.87 76.1406C119.198 75.8985 119.643 75.6953 120.206 75.5313C120.776 75.3594 121.385 75.2735 122.034 75.2735C123.01 75.2735 123.866 75.4141 124.6 75.6953C125.342 75.9766 125.889 76.3594 126.241 76.8438C126.592 77.3203 126.835 77.961 126.967 78.7656L124.905 79.0469C124.811 78.4063 124.538 77.9063 124.085 77.5469C123.639 77.1875 123.006 77.0078 122.186 77.0078C121.217 77.0078 120.526 77.168 120.112 77.4883C119.698 77.8086 119.491 78.1836 119.491 78.6133C119.491 78.8867 119.577 79.1328 119.749 79.3516C119.92 79.5781 120.19 79.7656 120.557 79.9141C120.768 79.9922 121.389 80.1719 122.42 80.4531C123.913 80.8516 124.952 81.1797 125.538 81.4375C126.131 81.6875 126.596 82.0547 126.932 82.5391C127.268 83.0235 127.436 83.625 127.436 84.3438C127.436 85.0469 127.229 85.711 126.815 86.336C126.409 86.9531 125.819 87.4336 125.045 87.7774C124.272 88.1133 123.397 88.2813 122.42 88.2813C120.803 88.2813 119.569 87.9453 118.717 87.2735C117.874 86.6016 117.335 85.6055 117.1 84.2852Z" stroke="black" stroke-width="2" mask="url(#path-1-inside-1_6_14)"/>
<path class="svglogo" d="M137.983 83.9922L140.163 84.2617C139.819 85.5352 139.183 86.5235 138.253 87.2266C137.323 87.9297 136.136 88.2813 134.69 88.2813C132.87 88.2813 131.425 87.7227 130.355 86.6055C129.292 85.4805 128.761 83.9063 128.761 81.8828C128.761 79.7891 129.3 78.1641 130.378 77.0078C131.456 75.8516 132.855 75.2735 134.573 75.2735C136.237 75.2735 137.597 75.8399 138.651 76.9727C139.706 78.1055 140.233 79.6992 140.233 81.7539C140.233 81.8789 140.23 82.0664 140.222 82.3164H130.94C131.019 83.6836 131.405 84.7305 132.101 85.457C132.796 86.1836 133.663 86.5469 134.702 86.5469C135.476 86.5469 136.136 86.3438 136.683 85.9375C137.23 85.5313 137.663 84.8828 137.983 83.9922ZM131.058 80.582H138.007C137.913 79.5352 137.648 78.75 137.21 78.2266C136.538 77.4141 135.667 77.0078 134.597 77.0078C133.628 77.0078 132.812 77.332 132.148 77.9805C131.491 78.6289 131.128 79.4961 131.058 80.582Z" stroke="black" stroke-width="2" mask="url(#path-1-inside-1_6_14)"/>
<path class="svglogo" d="M150.418 88V86.4297C149.628 87.6641 148.468 88.2813 146.937 88.2813C145.945 88.2813 145.031 88.0078 144.195 87.461C143.367 86.9141 142.722 86.1524 142.261 85.1758C141.808 84.1914 141.582 83.0625 141.582 81.7891C141.582 80.5469 141.789 79.4219 142.203 78.4141C142.617 77.3985 143.238 76.6211 144.066 76.082C144.894 75.543 145.82 75.2735 146.843 75.2735C147.593 75.2735 148.261 75.4336 148.847 75.7539C149.433 76.0664 149.91 76.4766 150.277 76.9844V70.8203H152.375V88H150.418ZM143.75 81.7891C143.75 83.3828 144.085 84.5742 144.757 85.3633C145.429 86.1524 146.222 86.5469 147.136 86.5469C148.058 86.5469 148.839 86.1719 149.48 85.4219C150.128 84.6641 150.453 83.5117 150.453 81.9649C150.453 80.2617 150.125 79.0117 149.468 78.2149C148.812 77.418 148.003 77.0195 147.043 77.0195C146.105 77.0195 145.32 77.4024 144.687 78.168C144.062 78.9336 143.75 80.1406 143.75 81.7891Z" stroke="black" stroke-width="2" mask="url(#path-1-inside-1_6_14)"/>
<path class="svglogo" d="M163.344 86.4649C162.562 87.1289 161.809 87.5977 161.082 87.8711C160.363 88.1445 159.59 88.2813 158.762 88.2813C157.395 88.2813 156.344 87.9492 155.609 87.2852C154.875 86.6133 154.508 85.7578 154.508 84.7188C154.508 84.1094 154.645 83.5547 154.918 83.0547C155.199 82.5469 155.562 82.1406 156.008 81.836C156.461 81.5313 156.969 81.3008 157.531 81.1445C157.945 81.0352 158.57 80.9297 159.406 80.8281C161.109 80.625 162.363 80.3828 163.168 80.1016C163.176 79.8125 163.18 79.6289 163.18 79.5508C163.18 78.6914 162.98 78.086 162.582 77.7344C162.043 77.2578 161.242 77.0195 160.18 77.0195C159.188 77.0195 158.453 77.1953 157.977 77.5469C157.508 77.8906 157.16 78.5039 156.934 79.3867L154.871 79.1055C155.059 78.2227 155.367 77.5117 155.797 76.9727C156.227 76.4258 156.848 76.0078 157.66 75.7188C158.473 75.4219 159.414 75.2735 160.484 75.2735C161.547 75.2735 162.41 75.3985 163.074 75.6485C163.738 75.8985 164.227 76.2149 164.539 76.5977C164.852 76.9727 165.07 77.4492 165.195 78.0274C165.266 78.3867 165.301 79.0352 165.301 79.9727V82.7852C165.301 84.7461 165.344 85.9883 165.43 86.5117C165.523 87.0274 165.703 87.5235 165.969 88H163.766C163.547 87.5625 163.406 87.0508 163.344 86.4649ZM163.168 81.7539C162.402 82.0664 161.254 82.332 159.723 82.5508C158.855 82.6758 158.242 82.8164 157.883 82.9727C157.523 83.1289 157.246 83.3594 157.051 83.6641C156.855 83.961 156.758 84.293 156.758 84.6602C156.758 85.2227 156.969 85.6914 157.391 86.0664C157.82 86.4414 158.445 86.6289 159.266 86.6289C160.078 86.6289 160.801 86.4531 161.434 86.1016C162.066 85.7422 162.531 85.2539 162.828 84.6367C163.055 84.1602 163.168 83.457 163.168 82.5274V81.7539Z" stroke="black" stroke-width="2" mask="url(#path-1-inside-1_6_14)"/>
</svg>
