<svg width="195" height="86" fill="none" xmlns="http://www.w3.org/2000/svg"><mask id="path-1-inside-1_6_14" fill="#fff"><path d="M.552 51.176c1.79 0 3.043-.102 3.759-.307.767-.204 1.253-.588 1.457-1.15.256-.563.384-1.509.384-2.838V10.06c0-1.38-.128-2.352-.384-2.915-.204-.614-.69-1.023-1.457-1.227-.716-.205-1.97-.307-3.759-.307V3.08h22.936v2.53c-1.79 0-3.069.103-3.836.308-.767.204-1.278.613-1.534 1.227-.204.563-.307 1.534-.307 2.915v35.9c0 1.533.154 2.633.46 3.298.307.613.87 1.022 1.688 1.227.87.204 2.276.307 4.219.307 4.244 0 7.44-.767 9.588-2.301 2.148-1.535 3.682-4.322 4.603-8.362h2.685l-.92 13.578H.551v-2.532ZM64.967 54.551c-6.443 0-11.225-1.534-14.344-4.602-3.12-3.068-4.68-7.799-4.68-14.191 0-6.443 1.56-11.225 4.68-14.344 3.17-3.12 8.003-4.68 14.498-4.68 6.392 0 11.122 1.535 14.19 4.603 3.069 3.068 4.603 7.824 4.603 14.268 0 6.494-1.56 11.276-4.68 14.344-3.067 3.068-7.823 4.602-14.267 4.602Zm.077-2.684c2.608 0 4.5-1.228 5.676-3.682 1.177-2.455 1.765-6.29 1.765-11.507 0-6.034-.588-10.406-1.765-13.116-1.176-2.71-3.12-4.066-5.83-4.066-2.659 0-4.576 1.355-5.752 4.066-1.177 2.659-1.765 6.75-1.765 12.273 0 5.676.588 9.767 1.765 12.273 1.176 2.506 3.145 3.759 5.906 3.759ZM127.975 47.34c0 1.126.103 1.944.307 2.455.205.512.614.87 1.228 1.074.664.205 1.713.307 3.145.307v2.532h-19.561v-2.532c1.227 0 2.097-.076 2.608-.23.563-.153.921-.46 1.074-.92.205-.46.307-1.228.307-2.302v-18.41c0-5.216-1.867-7.824-5.6-7.824-1.329 0-2.531.307-3.605.92-1.023.563-2.173 1.484-3.452 2.762v22.322c0 1.125.102 1.944.307 2.455.256.511.665.844 1.227.997.563.154 1.458.23 2.685.23v2.532h-20.02v-2.532c1.482 0 2.556-.102 3.221-.307.665-.204 1.1-.562 1.304-1.074.256-.51.384-1.33.384-2.454V24.635c0-1.176-.154-1.943-.46-2.3-.256-.41-.844-.614-1.765-.614h-2.531v-2.532l12.043-1.918h3.298v5.063h.23c1.79-1.687 3.657-3.017 5.6-3.989 1.995-1.022 4.296-1.534 6.904-1.534 3.528 0 6.264.997 8.208 2.992 1.943 1.994 2.914 5.011 2.914 9.051v18.487Z"/><path d="M143.635 13.053c-1.688 0-3.171-.589-4.449-1.765-1.228-1.176-1.841-2.608-1.841-4.295 0-1.688.613-3.12 1.841-4.296 1.278-1.227 2.787-1.841 4.525-1.841 1.688 0 3.145.614 4.373 1.841 1.278 1.176 1.917 2.582 1.917 4.219 0 1.687-.639 3.145-1.917 4.372-1.279 1.176-2.762 1.764-4.449 1.764Zm-7.901 72.255c-2.608 0-4.833-.588-6.674-1.764-1.892-1.125-2.838-2.762-2.838-4.91 0-1.38.435-2.556 1.304-3.528.869-.92 1.969-1.38 3.298-1.38 1.279 0 2.378.332 3.299.996.869.665 1.329 1.662 1.381 2.992 0 .511-.077.92-.231 1.227-.153.307-.357.665-.613 1.074a8.437 8.437 0 0 0-.384.46c-.153.307-.23.64-.23.998 0 .46.205.818.614 1.073.409.256.818.384 1.227.384.818 0 1.406-.205 1.764-.614.358-.409.589-1.176.691-2.3.153-1.126.23-2.89.23-5.294V24.635c0-1.176-.154-1.943-.46-2.3-.256-.41-.844-.614-1.765-.614h-2.531v-2.532l12.197-1.918h3.451v34.826c0 5.523-1.15 25.208-3.451 28.378-2.302 3.222-5.728 4.833-10.279 4.833ZM195 52.097c-2.557 1.636-5.625 2.454-9.205 2.454-1.943 0-3.503-.332-4.679-.997-1.176-.665-1.943-1.585-2.301-2.761-3.171 2.505-6.776 3.758-10.816 3.758-3.375 0-5.983-.69-7.824-2.07-1.841-1.381-2.762-3.401-2.762-6.06 0-3.427 1.867-6.342 5.6-8.745 3.733-2.404 8.924-4.22 15.572-5.447v-5.753c-.052-2.25-.486-3.886-1.304-4.909-.819-1.074-2.302-1.61-4.45-1.61-1.227 0-2.275.204-3.145.613-.869.358-1.304.818-1.304 1.38 0 .41.256.921.768 1.535.409.511.69.946.843 1.304.205.358.307.87.307 1.534 0 1.33-.486 2.48-1.457 3.452-.972.92-2.25 1.38-3.836 1.38-1.636 0-2.94-.46-3.912-1.38-.92-.972-1.381-2.097-1.381-3.375 0-1.586.589-3.094 1.765-4.526 1.227-1.432 3.119-2.608 5.676-3.529 2.557-.971 5.753-1.457 9.589-1.457 4.397 0 7.594.997 9.588 2.991 2.046 1.944 3.068 5.038 3.068 9.282v16.876c0 1.84.154 3.068.461 3.682.358.614.92.92 1.687.92.665 0 1.227-.102 1.688-.306l.92-.46.844 2.224Zm-26.771-7.44c0 1.84.384 3.195 1.151 4.065.818.818 2.071 1.227 3.758 1.227 1.637 0 3.452-.742 5.447-2.225v-12.35c-3.58.972-6.214 2.2-7.901 3.682-1.637 1.483-2.455 3.35-2.455 5.6ZM56.137 70.487v-1.254c-.63.986-1.557 1.48-2.781 1.48a3.922 3.922 0 0 1-2.191-.656c-.662-.437-1.177-1.046-1.545-1.826-.362-.787-.543-1.689-.543-2.706 0-.993.165-1.892.496-2.697.33-.812.827-1.433 1.489-1.864a3.98 3.98 0 0 1 2.22-.646c.598 0 1.132.128 1.6.384a3.3 3.3 0 0 1 1.143.983V56.76H57.7v13.727h-1.564Zm-5.328-4.962c0 1.273.269 2.225.805 2.856.537.63 1.17.945 1.901.945.737 0 1.361-.3 1.873-.899.518-.605.777-1.526.777-2.762 0-1.36-.262-2.36-.786-2.996-.525-.637-1.17-.955-1.939-.955-.749 0-1.376.306-1.882.917-.5.612-.749 1.576-.749 2.894ZM66.784 67.285l1.742.215c-.275 1.018-.784 1.808-1.527 2.37-.742.561-1.691.842-2.846.842-1.455 0-2.61-.446-3.465-1.339-.849-.899-1.273-2.157-1.273-3.773 0-1.673.43-2.972 1.292-3.896.861-.924 1.979-1.386 3.352-1.386 1.33 0 2.416.453 3.259 1.358.842.905 1.264 2.179 1.264 3.82 0 .1-.003.25-.01.45h-7.416c.063 1.092.372 1.929.927 2.51.556.58 1.249.87 2.08.87.617 0 1.145-.162 1.582-.487.437-.324.783-.842 1.039-1.554ZM61.25 64.56h5.553c-.075-.836-.287-1.464-.637-1.882-.537-.65-1.233-.974-2.088-.974-.774 0-1.427.26-1.957.777-.525.519-.815 1.212-.871 2.08ZM75.184 70.487V56.76h1.685v13.727h-1.685ZM85.597 69.26c-.624.531-1.227.906-1.807 1.124a5.17 5.17 0 0 1-1.854.328c-1.093 0-1.933-.265-2.52-.796-.586-.537-.88-1.22-.88-2.05 0-.487.11-.93.328-1.33.225-.406.515-.73.871-.974a4.16 4.16 0 0 1 1.217-.552c.331-.088.83-.172 1.499-.253 1.36-.163 2.362-.356 3.005-.58.007-.232.01-.378.01-.44 0-.688-.16-1.171-.478-1.452-.43-.381-1.07-.571-1.92-.571-.792 0-1.379.14-1.76.421-.374.275-.652.765-.833 1.47l-1.648-.225c.15-.705.396-1.273.74-1.704.343-.437.84-.77 1.488-1.002.65-.237 1.402-.356 2.257-.356.849 0 1.539.1 2.07.3.53.2.92.453 1.17.758.25.3.424.68.524 1.143.056.287.085.805.085 1.554v2.248c0 1.566.034 2.559.103 2.977.075.412.218.809.43 1.19h-1.76a3.575 3.575 0 0 1-.337-1.227Zm-.14-3.763c-.612.25-1.53.462-2.754.636-.693.1-1.183.213-1.47.337a1.456 1.456 0 0 0-.899 1.349c0 .45.169.824.506 1.123.343.3.843.45 1.498.45.65 0 1.227-.14 1.733-.421a2.65 2.65 0 0 0 1.114-1.171c.18-.38.271-.943.271-1.685v-.618ZM93.678 67.52l1.667-.263c.094.668.353 1.18.777 1.536.431.355 1.03.533 1.798.533.774 0 1.349-.156 1.723-.468.375-.318.562-.69.562-1.114 0-.38-.165-.68-.496-.9-.231-.149-.806-.34-1.723-.57-1.236-.312-2.095-.58-2.575-.805-.475-.231-.837-.547-1.086-.946a2.553 2.553 0 0 1-.366-1.34c0-.443.1-.851.3-1.226.206-.38.484-.696.833-.946.263-.193.618-.355 1.068-.487a5.039 5.039 0 0 1 1.46-.206c.78 0 1.465.113 2.051.338.593.224 1.03.53 1.311.917.281.38.475.893.581 1.536l-1.648.224c-.075-.511-.294-.91-.656-1.198-.356-.287-.861-.43-1.517-.43-.774 0-1.326.127-1.657.383-.33.256-.496.556-.496.9a.93.93 0 0 0 .206.589c.137.181.352.33.646.45.168.062.665.205 1.489.43 1.192.319 2.022.58 2.49.787a2.5 2.5 0 0 1 1.115.88c.268.387.402.868.402 1.442 0 .562-.165 1.092-.496 1.592-.325.493-.796.877-1.414 1.151-.618.269-1.317.403-2.097.403-1.293 0-2.279-.268-2.96-.805-.674-.537-1.104-1.333-1.291-2.388ZM110.365 67.285l1.742.215c-.275 1.018-.784 1.808-1.527 2.37-.742.561-1.691.842-2.846.842-1.455 0-2.61-.446-3.465-1.339-.849-.899-1.273-2.157-1.273-3.773 0-1.673.43-2.972 1.292-3.896.861-.924 1.979-1.386 3.352-1.386 1.33 0 2.416.453 3.259 1.358.842.905 1.264 2.179 1.264 3.82 0 .1-.003.25-.01.45h-7.416c.063 1.092.372 1.929.927 2.51.556.58 1.249.87 2.079.87.618 0 1.146-.162 1.583-.487.437-.324.783-.842 1.039-1.554Zm-5.534-2.725h5.553c-.075-.836-.287-1.464-.637-1.882-.537-.65-1.233-.974-2.088-.974-.774 0-1.427.26-1.957.777-.525.519-.815 1.212-.871 2.08ZM120.3 70.487v-1.254c-.63.986-1.557 1.48-2.781 1.48a3.921 3.921 0 0 1-2.191-.656c-.662-.437-1.177-1.046-1.545-1.826-.362-.787-.543-1.689-.543-2.706 0-.993.165-1.892.496-2.697.331-.812.827-1.433 1.489-1.864a3.983 3.983 0 0 1 2.219-.646c.6 0 1.133.128 1.602.384.468.25.849.578 1.142.983V56.76h1.676v13.727H120.3Zm-5.328-4.962c0 1.273.269 2.225.806 2.856.536.63 1.17.945 1.9.945.737 0 1.361-.3 1.873-.899.518-.605.777-1.526.777-2.762 0-1.36-.262-2.36-.786-2.996-.525-.637-1.171-.955-1.938-.955-.75 0-1.377.306-1.883.917-.499.612-.749 1.576-.749 2.894Z"/><path d="M130.629 69.26c-.624.531-1.227.906-1.807 1.124a5.176 5.176 0 0 1-1.854.328c-1.093 0-1.932-.265-2.519-.796-.587-.537-.88-1.22-.88-2.05 0-.487.109-.93.327-1.33.225-.406.515-.73.871-.974a4.162 4.162 0 0 1 1.217-.552c.331-.088.831-.172 1.499-.253 1.361-.163 2.362-.356 3.005-.58.007-.232.01-.378.01-.44 0-.688-.159-1.171-.478-1.452-.431-.381-1.07-.571-1.919-.571-.793 0-1.38.14-1.761.421-.374.275-.652.765-.833 1.47l-1.648-.225c.15-.705.396-1.273.74-1.704.343-.437.839-.77 1.488-1.002.65-.237 1.402-.356 2.257-.356.849 0 1.539.1 2.069.3.531.2.921.453 1.171.758.25.3.424.68.524 1.143.057.287.085.805.085 1.554v2.248c0 1.566.034 2.559.103 2.977.075.412.218.809.43 1.19h-1.76a3.57 3.57 0 0 1-.337-1.227Zm-.141-3.763c-.611.25-1.529.462-2.753.636-.692.1-1.182.213-1.47.337a1.454 1.454 0 0 0-.899 1.349c0 .45.169.824.506 1.123.343.3.843.45 1.498.45.65 0 1.227-.14 1.733-.421a2.652 2.652 0 0 0 1.114-1.171c.181-.38.271-.943.271-1.685v-.618Z"/></mask><path d="M.552 51.176c1.79 0 3.043-.102 3.759-.307.767-.204 1.253-.588 1.457-1.15.256-.563.384-1.509.384-2.838V10.06c0-1.38-.128-2.352-.384-2.915-.204-.614-.69-1.023-1.457-1.227-.716-.205-1.97-.307-3.759-.307V3.08h22.936v2.53c-1.79 0-3.069.103-3.836.308-.767.204-1.278.613-1.534 1.227-.204.563-.307 1.534-.307 2.915v35.9c0 1.533.154 2.633.46 3.298.307.613.87 1.022 1.688 1.227.87.204 2.276.307 4.219.307 4.244 0 7.44-.767 9.588-2.301 2.148-1.535 3.682-4.322 4.603-8.362h2.685l-.92 13.578H.551v-2.532ZM64.967 54.551c-6.443 0-11.225-1.534-14.344-4.602-3.12-3.068-4.68-7.799-4.68-14.191 0-6.443 1.56-11.225 4.68-14.344 3.17-3.12 8.003-4.68 14.498-4.68 6.392 0 11.122 1.535 14.19 4.603 3.069 3.068 4.603 7.824 4.603 14.268 0 6.494-1.56 11.276-4.68 14.344-3.067 3.068-7.823 4.602-14.267 4.602Zm.077-2.684c2.608 0 4.5-1.228 5.676-3.682 1.177-2.455 1.765-6.29 1.765-11.507 0-6.034-.588-10.406-1.765-13.116-1.176-2.71-3.12-4.066-5.83-4.066-2.659 0-4.576 1.355-5.752 4.066-1.177 2.659-1.765 6.75-1.765 12.273 0 5.676.588 9.767 1.765 12.273 1.176 2.506 3.145 3.759 5.906 3.759ZM127.975 47.34c0 1.126.103 1.944.307 2.455.205.512.614.87 1.228 1.074.664.205 1.713.307 3.145.307v2.532h-19.561v-2.532c1.227 0 2.097-.076 2.608-.23.563-.153.921-.46 1.074-.92.205-.46.307-1.228.307-2.302v-18.41c0-5.216-1.867-7.824-5.6-7.824-1.329 0-2.531.307-3.605.92-1.023.563-2.173 1.484-3.452 2.762v22.322c0 1.125.102 1.944.307 2.455.256.511.665.844 1.227.997.563.154 1.458.23 2.685.23v2.532h-20.02v-2.532c1.482 0 2.556-.102 3.221-.307.665-.204 1.1-.562 1.304-1.074.256-.51.384-1.33.384-2.454V24.635c0-1.176-.154-1.943-.46-2.3-.256-.41-.844-.614-1.765-.614h-2.531v-2.532l12.043-1.918h3.298v5.063h.23c1.79-1.687 3.657-3.017 5.6-3.989 1.995-1.022 4.296-1.534 6.904-1.534 3.528 0 6.264.997 8.208 2.992 1.943 1.994 2.914 5.011 2.914 9.051v18.487Z" fill="#000"/><path d="M143.635 13.053c-1.688 0-3.171-.589-4.449-1.765-1.228-1.176-1.841-2.608-1.841-4.295 0-1.688.613-3.12 1.841-4.296 1.278-1.227 2.787-1.841 4.525-1.841 1.688 0 3.145.614 4.373 1.841 1.278 1.176 1.917 2.582 1.917 4.219 0 1.687-.639 3.145-1.917 4.372-1.279 1.176-2.762 1.764-4.449 1.764Zm-7.901 72.255c-2.608 0-4.833-.588-6.674-1.764-1.892-1.125-2.838-2.762-2.838-4.91 0-1.38.435-2.556 1.304-3.528.869-.92 1.969-1.38 3.298-1.38 1.279 0 2.378.332 3.299.996.869.665 1.329 1.662 1.381 2.992 0 .511-.077.92-.231 1.227-.153.307-.357.665-.613 1.074a8.437 8.437 0 0 0-.384.46c-.153.307-.23.64-.23.998 0 .46.205.818.614 1.073.409.256.818.384 1.227.384.818 0 1.406-.205 1.764-.614.358-.409.589-1.176.691-2.3.153-1.126.23-2.89.23-5.294V24.635c0-1.176-.154-1.943-.46-2.3-.256-.41-.844-.614-1.765-.614h-2.531v-2.532l12.197-1.918h3.451v34.826c0 5.523-1.15 25.208-3.451 28.378-2.302 3.222-5.728 4.833-10.279 4.833ZM195 52.097c-2.557 1.636-5.625 2.454-9.205 2.454-1.943 0-3.503-.332-4.679-.997-1.176-.665-1.943-1.585-2.301-2.761-3.171 2.505-6.776 3.758-10.816 3.758-3.375 0-5.983-.69-7.824-2.07-1.841-1.381-2.762-3.401-2.762-6.06 0-3.427 1.867-6.342 5.6-8.745 3.733-2.404 8.924-4.22 15.572-5.447v-5.753c-.052-2.25-.486-3.886-1.304-4.909-.819-1.074-2.302-1.61-4.45-1.61-1.227 0-2.275.204-3.145.613-.869.358-1.304.818-1.304 1.38 0 .41.256.921.768 1.535.409.511.69.946.843 1.304.205.358.307.87.307 1.534 0 1.33-.486 2.48-1.457 3.452-.972.92-2.25 1.38-3.836 1.38-1.636 0-2.94-.46-3.912-1.38-.92-.972-1.381-2.097-1.381-3.375 0-1.586.589-3.094 1.765-4.526 1.227-1.432 3.119-2.608 5.676-3.529 2.557-.971 5.753-1.457 9.589-1.457 4.397 0 7.594.997 9.588 2.991 2.046 1.944 3.068 5.038 3.068 9.282v16.876c0 1.84.154 3.068.461 3.682.358.614.92.92 1.687.92.665 0 1.227-.102 1.688-.306l.92-.46.844 2.224Zm-26.771-7.44c0 1.84.384 3.195 1.151 4.065.818.818 2.071 1.227 3.758 1.227 1.637 0 3.452-.742 5.447-2.225v-12.35c-3.58.972-6.214 2.2-7.901 3.682-1.637 1.483-2.455 3.35-2.455 5.6ZM56.137 70.487v-1.254c-.63.986-1.557 1.48-2.781 1.48a3.922 3.922 0 0 1-2.191-.656c-.662-.437-1.177-1.046-1.545-1.826-.362-.787-.543-1.689-.543-2.706 0-.993.165-1.892.496-2.697.33-.812.827-1.433 1.489-1.864a3.98 3.98 0 0 1 2.22-.646c.598 0 1.132.128 1.6.384a3.3 3.3 0 0 1 1.143.983V56.76H57.7v13.727h-1.564Zm-5.328-4.962c0 1.273.269 2.225.805 2.856.537.63 1.17.945 1.901.945.737 0 1.361-.3 1.873-.899.518-.605.777-1.526.777-2.762 0-1.36-.262-2.36-.786-2.996-.525-.637-1.17-.955-1.939-.955-.749 0-1.376.306-1.882.917-.5.612-.749 1.576-.749 2.894ZM66.784 67.285l1.742.215c-.275 1.018-.784 1.808-1.527 2.37-.742.561-1.691.842-2.846.842-1.455 0-2.61-.446-3.465-1.339-.849-.899-1.273-2.157-1.273-3.773 0-1.673.43-2.972 1.292-3.896.861-.924 1.979-1.386 3.352-1.386 1.33 0 2.416.453 3.259 1.358.842.905 1.264 2.179 1.264 3.82 0 .1-.003.25-.01.45h-7.416c.063 1.092.372 1.929.927 2.51.556.58 1.249.87 2.08.87.617 0 1.145-.162 1.582-.487.437-.324.783-.842 1.039-1.554ZM61.25 64.56h5.553c-.075-.836-.287-1.464-.637-1.882-.537-.65-1.233-.974-2.088-.974-.774 0-1.427.26-1.957.777-.525.519-.815 1.212-.871 2.08ZM75.184 70.487V56.76h1.685v13.727h-1.685ZM85.597 69.26c-.624.531-1.227.906-1.807 1.124a5.17 5.17 0 0 1-1.854.328c-1.093 0-1.933-.265-2.52-.796-.586-.537-.88-1.22-.88-2.05 0-.487.11-.93.328-1.33.225-.406.515-.73.871-.974a4.16 4.16 0 0 1 1.217-.552c.331-.088.83-.172 1.499-.253 1.36-.163 2.362-.356 3.005-.58.007-.232.01-.378.01-.44 0-.688-.16-1.171-.478-1.452-.43-.381-1.07-.571-1.92-.571-.792 0-1.379.14-1.76.421-.374.275-.652.765-.833 1.47l-1.648-.225c.15-.705.396-1.273.74-1.704.343-.437.84-.77 1.488-1.002.65-.237 1.402-.356 2.257-.356.849 0 1.539.1 2.07.3.53.2.92.453 1.17.758.25.3.424.68.524 1.143.056.287.085.805.085 1.554v2.248c0 1.566.034 2.559.103 2.977.075.412.218.809.43 1.19h-1.76a3.575 3.575 0 0 1-.337-1.227Zm-.14-3.763c-.612.25-1.53.462-2.754.636-.693.1-1.183.213-1.47.337a1.456 1.456 0 0 0-.899 1.349c0 .45.169.824.506 1.123.343.3.843.45 1.498.45.65 0 1.227-.14 1.733-.421a2.65 2.65 0 0 0 1.114-1.171c.18-.38.271-.943.271-1.685v-.618ZM93.678 67.52l1.667-.263c.094.668.353 1.18.777 1.536.431.355 1.03.533 1.798.533.774 0 1.349-.156 1.723-.468.375-.318.562-.69.562-1.114 0-.38-.165-.68-.496-.9-.231-.149-.806-.34-1.723-.57-1.236-.312-2.095-.58-2.575-.805-.475-.231-.837-.547-1.086-.946a2.553 2.553 0 0 1-.366-1.34c0-.443.1-.851.3-1.226.206-.38.484-.696.833-.946.263-.193.618-.355 1.068-.487a5.039 5.039 0 0 1 1.46-.206c.78 0 1.465.113 2.051.338.593.224 1.03.53 1.311.917.281.38.475.893.581 1.536l-1.648.224c-.075-.511-.294-.91-.656-1.198-.356-.287-.861-.43-1.517-.43-.774 0-1.326.127-1.657.383-.33.256-.496.556-.496.9a.93.93 0 0 0 .206.589c.137.181.352.33.646.45.168.062.665.205 1.489.43 1.192.319 2.022.58 2.49.787a2.5 2.5 0 0 1 1.115.88c.268.387.402.868.402 1.442 0 .562-.165 1.092-.496 1.592-.325.493-.796.877-1.414 1.151-.618.269-1.317.403-2.097.403-1.293 0-2.279-.268-2.96-.805-.674-.537-1.104-1.333-1.291-2.388ZM110.365 67.285l1.742.215c-.275 1.018-.784 1.808-1.527 2.37-.742.561-1.691.842-2.846.842-1.455 0-2.61-.446-3.465-1.339-.849-.899-1.273-2.157-1.273-3.773 0-1.673.43-2.972 1.292-3.896.861-.924 1.979-1.386 3.352-1.386 1.33 0 2.416.453 3.259 1.358.842.905 1.264 2.179 1.264 3.82 0 .1-.003.25-.01.45h-7.416c.063 1.092.372 1.929.927 2.51.556.58 1.249.87 2.079.87.618 0 1.146-.162 1.583-.487.437-.324.783-.842 1.039-1.554Zm-5.534-2.725h5.553c-.075-.836-.287-1.464-.637-1.882-.537-.65-1.233-.974-2.088-.974-.774 0-1.427.26-1.957.777-.525.519-.815 1.212-.871 2.08ZM120.3 70.487v-1.254c-.63.986-1.557 1.48-2.781 1.48a3.921 3.921 0 0 1-2.191-.656c-.662-.437-1.177-1.046-1.545-1.826-.362-.787-.543-1.689-.543-2.706 0-.993.165-1.892.496-2.697.331-.812.827-1.433 1.489-1.864a3.983 3.983 0 0 1 2.219-.646c.6 0 1.133.128 1.602.384.468.25.849.578 1.142.983V56.76h1.676v13.727H120.3Zm-5.328-4.962c0 1.273.269 2.225.806 2.856.536.63 1.17.945 1.9.945.737 0 1.361-.3 1.873-.899.518-.605.777-1.526.777-2.762 0-1.36-.262-2.36-.786-2.996-.525-.637-1.171-.955-1.938-.955-.75 0-1.377.306-1.883.917-.499.612-.749 1.576-.749 2.894Z" fill="#000"/><path d="M130.629 69.26c-.624.531-1.227.906-1.807 1.124a5.176 5.176 0 0 1-1.854.328c-1.093 0-1.932-.265-2.519-.796-.587-.537-.88-1.22-.88-2.05 0-.487.109-.93.327-1.33.225-.406.515-.73.871-.974a4.162 4.162 0 0 1 1.217-.552c.331-.088.831-.172 1.499-.253 1.361-.163 2.362-.356 3.005-.58.007-.232.01-.378.01-.44 0-.688-.159-1.171-.478-1.452-.431-.381-1.07-.571-1.919-.571-.793 0-1.38.14-1.761.421-.374.275-.652.765-.833 1.47l-1.648-.225c.15-.705.396-1.273.74-1.704.343-.437.839-.77 1.488-1.002.65-.237 1.402-.356 2.257-.356.849 0 1.539.1 2.069.3.531.2.921.453 1.171.758.25.3.424.68.524 1.143.057.287.085.805.085 1.554v2.248c0 1.566.034 2.559.103 2.977.075.412.218.809.43 1.19h-1.76a3.57 3.57 0 0 1-.337-1.227Zm-.141-3.763c-.611.25-1.529.462-2.753.636-.692.1-1.182.213-1.47.337a1.454 1.454 0 0 0-.899 1.349c0 .45.169.824.506 1.123.343.3.843.45 1.498.45.65 0 1.227-.14 1.733-.421a2.652 2.652 0 0 0 1.114-1.171c.181-.38.271-.943.271-1.685v-.618Z" fill="#000"/><path d="M.552 51.176c1.79 0 3.043-.102 3.759-.307.767-.204 1.253-.588 1.457-1.15.256-.563.384-1.509.384-2.838V10.06c0-1.38-.128-2.352-.384-2.915-.204-.614-.69-1.023-1.457-1.227-.716-.205-1.97-.307-3.759-.307V3.08h22.936v2.53c-1.79 0-3.069.103-3.836.308-.767.204-1.278.613-1.534 1.227-.204.563-.307 1.534-.307 2.915v35.9c0 1.533.154 2.633.46 3.298.307.613.87 1.022 1.688 1.227.87.204 2.276.307 4.219.307 4.244 0 7.44-.767 9.588-2.301 2.148-1.535 3.682-4.322 4.603-8.362h2.685l-.92 13.578H.551v-2.532ZM64.967 54.551c-6.443 0-11.225-1.534-14.344-4.602-3.12-3.068-4.68-7.799-4.68-14.191 0-6.443 1.56-11.225 4.68-14.344 3.17-3.12 8.003-4.68 14.498-4.68 6.392 0 11.122 1.535 14.19 4.603 3.069 3.068 4.603 7.824 4.603 14.268 0 6.494-1.56 11.276-4.68 14.344-3.067 3.068-7.823 4.602-14.267 4.602Zm.077-2.684c2.608 0 4.5-1.228 5.676-3.682 1.177-2.455 1.765-6.29 1.765-11.507 0-6.034-.588-10.406-1.765-13.116-1.176-2.71-3.12-4.066-5.83-4.066-2.659 0-4.576 1.355-5.752 4.066-1.177 2.659-1.765 6.75-1.765 12.273 0 5.676.588 9.767 1.765 12.273 1.176 2.506 3.145 3.759 5.906 3.759ZM127.975 47.34c0 1.126.103 1.944.307 2.455.205.512.614.87 1.228 1.074.664.205 1.713.307 3.145.307v2.532h-19.561v-2.532c1.227 0 2.097-.076 2.608-.23.563-.153.921-.46 1.074-.92.205-.46.307-1.228.307-2.302v-18.41c0-5.216-1.867-7.824-5.6-7.824-1.329 0-2.531.307-3.605.92-1.023.563-2.173 1.484-3.452 2.762v22.322c0 1.125.102 1.944.307 2.455.256.511.665.844 1.227.997.563.154 1.458.23 2.685.23v2.532h-20.02v-2.532c1.482 0 2.556-.102 3.221-.307.665-.204 1.1-.562 1.304-1.074.256-.51.384-1.33.384-2.454V24.635c0-1.176-.154-1.943-.46-2.3-.256-.41-.844-.614-1.765-.614h-2.531v-2.532l12.043-1.918h3.298v5.063h.23c1.79-1.687 3.657-3.017 5.6-3.989 1.995-1.022 4.296-1.534 6.904-1.534 3.528 0 6.264.997 8.208 2.992 1.943 1.994 2.914 5.011 2.914 9.051v18.487Z" stroke="#000" stroke-width="2" mask="url('#path-1-inside-1_6_14')"/><path d="M143.635 13.053c-1.688 0-3.171-.589-4.449-1.765-1.228-1.176-1.841-2.608-1.841-4.295 0-1.688.613-3.12 1.841-4.296 1.278-1.227 2.787-1.841 4.525-1.841 1.688 0 3.145.614 4.373 1.841 1.278 1.176 1.917 2.582 1.917 4.219 0 1.687-.639 3.145-1.917 4.372-1.279 1.176-2.762 1.764-4.449 1.764Zm-7.901 72.255c-2.608 0-4.833-.588-6.674-1.764-1.892-1.125-2.838-2.762-2.838-4.91 0-1.38.435-2.556 1.304-3.528.869-.92 1.969-1.38 3.298-1.38 1.279 0 2.378.332 3.299.996.869.665 1.329 1.662 1.381 2.992 0 .511-.077.92-.231 1.227-.153.307-.357.665-.613 1.074a8.437 8.437 0 0 0-.384.46c-.153.307-.23.64-.23.998 0 .46.205.818.614 1.073.409.256.818.384 1.227.384.818 0 1.406-.205 1.764-.614.358-.409.589-1.176.691-2.3.153-1.126.23-2.89.23-5.294V24.635c0-1.176-.154-1.943-.46-2.3-.256-.41-.844-.614-1.765-.614h-2.531v-2.532l12.197-1.918h3.451v34.826c0 5.523-1.15 25.208-3.451 28.378-2.302 3.222-5.728 4.833-10.279 4.833ZM195 52.097c-2.557 1.636-5.625 2.454-9.205 2.454-1.943 0-3.503-.332-4.679-.997-1.176-.665-1.943-1.585-2.301-2.761-3.171 2.505-6.776 3.758-10.816 3.758-3.375 0-5.983-.69-7.824-2.07-1.841-1.381-2.762-3.401-2.762-6.06 0-3.427 1.867-6.342 5.6-8.745 3.733-2.404 8.924-4.22 15.572-5.447v-5.753c-.052-2.25-.486-3.886-1.304-4.909-.819-1.074-2.302-1.61-4.45-1.61-1.227 0-2.275.204-3.145.613-.869.358-1.304.818-1.304 1.38 0 .41.256.921.768 1.535.409.511.69.946.843 1.304.205.358.307.87.307 1.534 0 1.33-.486 2.48-1.457 3.452-.972.92-2.25 1.38-3.836 1.38-1.636 0-2.94-.46-3.912-1.38-.92-.972-1.381-2.097-1.381-3.375 0-1.586.589-3.094 1.765-4.526 1.227-1.432 3.119-2.608 5.676-3.529 2.557-.971 5.753-1.457 9.589-1.457 4.397 0 7.594.997 9.588 2.991 2.046 1.944 3.068 5.038 3.068 9.282v16.876c0 1.84.154 3.068.461 3.682.358.614.92.92 1.687.92.665 0 1.227-.102 1.688-.306l.92-.46.844 2.224Zm-26.771-7.44c0 1.84.384 3.195 1.151 4.065.818.818 2.071 1.227 3.758 1.227 1.637 0 3.452-.742 5.447-2.225v-12.35c-3.58.972-6.214 2.2-7.901 3.682-1.637 1.483-2.455 3.35-2.455 5.6ZM56.137 70.487v-1.254c-.63.986-1.557 1.48-2.781 1.48a3.922 3.922 0 0 1-2.191-.656c-.662-.437-1.177-1.046-1.545-1.826-.362-.787-.543-1.689-.543-2.706 0-.993.165-1.892.496-2.697.33-.812.827-1.433 1.489-1.864a3.98 3.98 0 0 1 2.22-.646c.598 0 1.132.128 1.6.384a3.3 3.3 0 0 1 1.143.983V56.76H57.7v13.727h-1.564Zm-5.328-4.962c0 1.273.269 2.225.805 2.856.537.63 1.17.945 1.901.945.737 0 1.361-.3 1.873-.899.518-.605.777-1.526.777-2.762 0-1.36-.262-2.36-.786-2.996-.525-.637-1.17-.955-1.939-.955-.749 0-1.376.306-1.882.917-.5.612-.749 1.576-.749 2.894ZM66.784 67.285l1.742.215c-.275 1.018-.784 1.808-1.527 2.37-.742.561-1.691.842-2.846.842-1.455 0-2.61-.446-3.465-1.339-.849-.899-1.273-2.157-1.273-3.773 0-1.673.43-2.972 1.292-3.896.861-.924 1.979-1.386 3.352-1.386 1.33 0 2.416.453 3.259 1.358.842.905 1.264 2.179 1.264 3.82 0 .1-.003.25-.01.45h-7.416c.063 1.092.372 1.929.927 2.51.556.58 1.249.87 2.08.87.617 0 1.145-.162 1.582-.487.437-.324.783-.842 1.039-1.554ZM61.25 64.56h5.553c-.075-.836-.287-1.464-.637-1.882-.537-.65-1.233-.974-2.088-.974-.774 0-1.427.26-1.957.777-.525.519-.815 1.212-.871 2.08ZM75.184 70.487V56.76h1.685v13.727h-1.685ZM85.597 69.26c-.624.531-1.227.906-1.807 1.124a5.17 5.17 0 0 1-1.854.328c-1.093 0-1.933-.265-2.52-.796-.586-.537-.88-1.22-.88-2.05 0-.487.11-.93.328-1.33.225-.406.515-.73.871-.974a4.16 4.16 0 0 1 1.217-.552c.331-.088.83-.172 1.499-.253 1.36-.163 2.362-.356 3.005-.58.007-.232.01-.378.01-.44 0-.688-.16-1.171-.478-1.452-.43-.381-1.07-.571-1.92-.571-.792 0-1.379.14-1.76.421-.374.275-.652.765-.833 1.47l-1.648-.225c.15-.705.396-1.273.74-1.704.343-.437.84-.77 1.488-1.002.65-.237 1.402-.356 2.257-.356.849 0 1.539.1 2.07.3.53.2.92.453 1.17.758.25.3.424.68.524 1.143.056.287.085.805.085 1.554v2.248c0 1.566.034 2.559.103 2.977.075.412.218.809.43 1.19h-1.76a3.575 3.575 0 0 1-.337-1.227Zm-.14-3.763c-.612.25-1.53.462-2.754.636-.693.1-1.183.213-1.47.337a1.456 1.456 0 0 0-.899 1.349c0 .45.169.824.506 1.123.343.3.843.45 1.498.45.65 0 1.227-.14 1.733-.421a2.65 2.65 0 0 0 1.114-1.171c.18-.38.271-.943.271-1.685v-.618ZM93.678 67.52l1.667-.263c.094.668.353 1.18.777 1.536.431.355 1.03.533 1.798.533.774 0 1.349-.156 1.723-.468.375-.318.562-.69.562-1.114 0-.38-.165-.68-.496-.9-.231-.149-.806-.34-1.723-.57-1.236-.312-2.095-.58-2.575-.805-.475-.231-.837-.547-1.086-.946a2.553 2.553 0 0 1-.366-1.34c0-.443.1-.851.3-1.226.206-.38.484-.696.833-.946.263-.193.618-.355 1.068-.487a5.039 5.039 0 0 1 1.46-.206c.78 0 1.465.113 2.051.338.593.224 1.03.53 1.311.917.281.38.475.893.581 1.536l-1.648.224c-.075-.511-.294-.91-.656-1.198-.356-.287-.861-.43-1.517-.43-.774 0-1.326.127-1.657.383-.33.256-.496.556-.496.9a.93.93 0 0 0 .206.589c.137.181.352.33.646.45.168.062.665.205 1.489.43 1.192.319 2.022.58 2.49.787a2.5 2.5 0 0 1 1.115.88c.268.387.402.868.402 1.442 0 .562-.165 1.092-.496 1.592-.325.493-.796.877-1.414 1.151-.618.269-1.317.403-2.097.403-1.293 0-2.279-.268-2.96-.805-.674-.537-1.104-1.333-1.291-2.388ZM110.365 67.285l1.742.215c-.275 1.018-.784 1.808-1.527 2.37-.742.561-1.691.842-2.846.842-1.455 0-2.61-.446-3.465-1.339-.849-.899-1.273-2.157-1.273-3.773 0-1.673.43-2.972 1.292-3.896.861-.924 1.979-1.386 3.352-1.386 1.33 0 2.416.453 3.259 1.358.842.905 1.264 2.179 1.264 3.82 0 .1-.003.25-.01.45h-7.416c.063 1.092.372 1.929.927 2.51.556.58 1.249.87 2.079.87.618 0 1.146-.162 1.583-.487.437-.324.783-.842 1.039-1.554Zm-5.534-2.725h5.553c-.075-.836-.287-1.464-.637-1.882-.537-.65-1.233-.974-2.088-.974-.774 0-1.427.26-1.957.777-.525.519-.815 1.212-.871 2.08ZM120.3 70.487v-1.254c-.63.986-1.557 1.48-2.781 1.48a3.921 3.921 0 0 1-2.191-.656c-.662-.437-1.177-1.046-1.545-1.826-.362-.787-.543-1.689-.543-2.706 0-.993.165-1.892.496-2.697.331-.812.827-1.433 1.489-1.864a3.983 3.983 0 0 1 2.219-.646c.6 0 1.133.128 1.602.384.468.25.849.578 1.142.983V56.76h1.676v13.727H120.3Zm-5.328-4.962c0 1.273.269 2.225.806 2.856.536.63 1.17.945 1.9.945.737 0 1.361-.3 1.873-.899.518-.605.777-1.526.777-2.762 0-1.36-.262-2.36-.786-2.996-.525-.637-1.171-.955-1.938-.955-.75 0-1.377.306-1.883.917-.499.612-.749 1.576-.749 2.894Z" stroke="#000" stroke-width="2" mask="url('#path-1-inside-1_6_14')"/><path d="M130.629 69.26c-.624.531-1.227.906-1.807 1.124a5.176 5.176 0 0 1-1.854.328c-1.093 0-1.932-.265-2.519-.796-.587-.537-.88-1.22-.88-2.05 0-.487.109-.93.327-1.33.225-.406.515-.73.871-.974a4.162 4.162 0 0 1 1.217-.552c.331-.088.831-.172 1.499-.253 1.361-.163 2.362-.356 3.005-.58.007-.232.01-.378.01-.44 0-.688-.159-1.171-.478-1.452-.431-.381-1.07-.571-1.919-.571-.793 0-1.38.14-1.761.421-.374.275-.652.765-.833 1.47l-1.648-.225c.15-.705.396-1.273.74-1.704.343-.437.839-.77 1.488-1.002.65-.237 1.402-.356 2.257-.356.849 0 1.539.1 2.069.3.531.2.921.453 1.171.758.25.3.424.68.524 1.143.057.287.085.805.085 1.554v2.248c0 1.566.034 2.559.103 2.977.075.412.218.809.43 1.19h-1.76a3.57 3.57 0 0 1-.337-1.227Zm-.141-3.763c-.611.25-1.529.462-2.753.636-.692.1-1.182.213-1.47.337a1.454 1.454 0 0 0-.899 1.349c0 .45.169.824.506 1.123.343.3.843.45 1.498.45.65 0 1.227-.14 1.733-.421a2.652 2.652 0 0 0 1.114-1.171c.181-.38.271-.943.271-1.685v-.618Z" stroke="#000" stroke-width="2" mask="url('#path-1-inside-1_6_14')"/></svg>